<mxfile host="Electron" agent="Mozilla/5.0 (Windows NT 10.0; Win64; x64) AppleWebKit/537.36 (KHTML, like Gecko) draw.io/24.7.8 Chrome/128.0.6613.36 Electron/32.0.1 Safari/537.36" version="24.7.8">
  <diagram name="Page-1" id="Q6ml3-hBe_hFO2u9gaih">
    <mxGraphModel dx="2690" dy="3040" grid="1" gridSize="10" guides="1" tooltips="1" connect="1" arrows="1" fold="1" page="1" pageScale="1" pageWidth="827" pageHeight="1169" math="0" shadow="0">
      <root>
        <mxCell id="0" />
        <mxCell id="1" parent="0" />
        <mxCell id="lUtUu6bvZHFrBesHKLuT-3" value="" style="rounded=1;whiteSpace=wrap;html=1;fillColor=none;dashed=1;" parent="1" vertex="1">
          <mxGeometry x="-1006.26" y="-1169" width="1287" height="1389" as="geometry" />
        </mxCell>
        <mxCell id="lUtUu6bvZHFrBesHKLuT-1" value="" style="rounded=1;whiteSpace=wrap;html=1;fillColor=none;dashed=1;" parent="1" vertex="1">
          <mxGeometry x="-947" y="-2170" width="1287" height="910" as="geometry" />
        </mxCell>
        <mxCell id="2dVnj18pgSdBOUYapdus-58" value="" style="rounded=1;whiteSpace=wrap;html=1;fontFamily=Helvetica;fontSize=13;fontColor=#000000;fillColor=none;dashed=1;" parent="1" vertex="1">
          <mxGeometry x="-500.88" y="70" width="476.5" height="109" as="geometry" />
        </mxCell>
        <mxCell id="2dVnj18pgSdBOUYapdus-53" value="" style="edgeStyle=orthogonalEdgeStyle;rounded=0;orthogonalLoop=1;jettySize=auto;html=1;fontFamily=Helvetica;fontSize=13;fontColor=#000000;startArrow=none;startFill=0;" parent="1" source="2dVnj18pgSdBOUYapdus-44" target="2dVnj18pgSdBOUYapdus-51" edge="1">
          <mxGeometry relative="1" as="geometry" />
        </mxCell>
        <mxCell id="2dVnj18pgSdBOUYapdus-44" value="" style="rounded=1;whiteSpace=wrap;html=1;fontFamily=Helvetica;fontSize=13;fontColor=#000000;fillColor=none;dashed=1;" parent="1" vertex="1">
          <mxGeometry x="-425.88" y="-180" width="310" height="80" as="geometry" />
        </mxCell>
        <mxCell id="7JX_YpENttwIk4AB1Mbf-36" value="" style="rounded=0;whiteSpace=wrap;html=1;fillColor=none;dashed=1;" parent="1" vertex="1">
          <mxGeometry x="737.5" y="-525" width="940" height="200" as="geometry" />
        </mxCell>
        <mxCell id="7JX_YpENttwIk4AB1Mbf-1" value="Aurora" style="sketch=0;points=[[0,0,0],[0.25,0,0],[0.5,0,0],[0.75,0,0],[1,0,0],[0,1,0],[0.25,1,0],[0.5,1,0],[0.75,1,0],[1,1,0],[0,0.25,0],[0,0.5,0],[0,0.75,0],[1,0.25,0],[1,0.5,0],[1,0.75,0]];outlineConnect=0;fontColor=#232F3E;gradientColor=#4D72F3;gradientDirection=north;fillColor=#3334B9;strokeColor=#ffffff;dashed=0;verticalLabelPosition=bottom;verticalAlign=top;align=center;html=1;fontSize=12;fontStyle=0;aspect=fixed;shape=mxgraph.aws4.resourceIcon;resIcon=mxgraph.aws4.aurora;" parent="1" vertex="1">
          <mxGeometry x="1001" y="-1440" width="78" height="78" as="geometry" />
        </mxCell>
        <mxCell id="7JX_YpENttwIk4AB1Mbf-4" style="edgeStyle=orthogonalEdgeStyle;rounded=0;orthogonalLoop=1;jettySize=auto;html=1;entryX=0;entryY=0.5;entryDx=0;entryDy=0;entryPerimeter=0;" parent="1" source="7JX_YpENttwIk4AB1Mbf-2" target="7JX_YpENttwIk4AB1Mbf-1" edge="1">
          <mxGeometry relative="1" as="geometry" />
        </mxCell>
        <mxCell id="7JX_YpENttwIk4AB1Mbf-8" style="edgeStyle=orthogonalEdgeStyle;rounded=0;orthogonalLoop=1;jettySize=auto;html=1;entryX=0.5;entryY=1;entryDx=0;entryDy=0;" parent="1" source="7JX_YpENttwIk4AB1Mbf-2" target="7JX_YpENttwIk4AB1Mbf-7" edge="1">
          <mxGeometry relative="1" as="geometry" />
        </mxCell>
        <mxCell id="7JX_YpENttwIk4AB1Mbf-10" style="edgeStyle=orthogonalEdgeStyle;rounded=0;orthogonalLoop=1;jettySize=auto;html=1;" parent="1" source="7JX_YpENttwIk4AB1Mbf-2" target="7JX_YpENttwIk4AB1Mbf-9" edge="1">
          <mxGeometry relative="1" as="geometry" />
        </mxCell>
        <mxCell id="7JX_YpENttwIk4AB1Mbf-2" value="" style="sketch=0;outlineConnect=0;fontColor=#232F3E;gradientColor=none;fillColor=#2E27AD;strokeColor=none;dashed=0;verticalLabelPosition=bottom;verticalAlign=top;align=center;html=1;fontSize=12;fontStyle=0;aspect=fixed;pointerEvents=1;shape=mxgraph.aws4.rds_proxy_alt;" parent="1" vertex="1">
          <mxGeometry x="817" y="-1440" width="78" height="78" as="geometry" />
        </mxCell>
        <mxCell id="7JX_YpENttwIk4AB1Mbf-6" style="edgeStyle=orthogonalEdgeStyle;rounded=0;orthogonalLoop=1;jettySize=auto;html=1;" parent="1" source="7JX_YpENttwIk4AB1Mbf-5" target="7JX_YpENttwIk4AB1Mbf-2" edge="1">
          <mxGeometry relative="1" as="geometry" />
        </mxCell>
        <mxCell id="7JX_YpENttwIk4AB1Mbf-5" value="Client" style="sketch=0;outlineConnect=0;fontColor=#232F3E;gradientColor=none;strokeColor=#232F3E;fillColor=#ffffff;dashed=0;verticalLabelPosition=bottom;verticalAlign=top;align=center;html=1;fontSize=12;fontStyle=0;aspect=fixed;shape=mxgraph.aws4.resourceIcon;resIcon=mxgraph.aws4.client;" parent="1" vertex="1">
          <mxGeometry x="611" y="-1431" width="60" height="60" as="geometry" />
        </mxCell>
        <mxCell id="7JX_YpENttwIk4AB1Mbf-7" value="handles connection pooling" style="text;html=1;strokeColor=none;fillColor=none;align=center;verticalAlign=middle;whiteSpace=wrap;rounded=0;" parent="1" vertex="1">
          <mxGeometry x="697" y="-1510" width="120" height="30" as="geometry" />
        </mxCell>
        <mxCell id="7JX_YpENttwIk4AB1Mbf-9" value="faster failovers &lt;br&gt;&lt;ul&gt;&lt;li style=&quot;text-align: left;&quot;&gt;not DNS based&lt;/li&gt;&lt;li style=&quot;text-align: left;&quot;&gt;queues incoming requests&lt;br&gt;&lt;/li&gt;&lt;/ul&gt;" style="text;html=1;strokeColor=none;fillColor=none;align=center;verticalAlign=middle;whiteSpace=wrap;rounded=0;" parent="1" vertex="1">
          <mxGeometry x="831" y="-1550" width="270" height="70" as="geometry" />
        </mxCell>
        <mxCell id="7JX_YpENttwIk4AB1Mbf-13" style="edgeStyle=orthogonalEdgeStyle;rounded=0;orthogonalLoop=1;jettySize=auto;html=1;entryX=0;entryY=0.5;entryDx=0;entryDy=0;entryPerimeter=0;" parent="1" source="7JX_YpENttwIk4AB1Mbf-11" target="7JX_YpENttwIk4AB1Mbf-12" edge="1">
          <mxGeometry relative="1" as="geometry" />
        </mxCell>
        <mxCell id="7JX_YpENttwIk4AB1Mbf-22" style="edgeStyle=orthogonalEdgeStyle;rounded=0;orthogonalLoop=1;jettySize=auto;html=1;entryX=0;entryY=0.5;entryDx=0;entryDy=0;entryPerimeter=0;" parent="1" source="7JX_YpENttwIk4AB1Mbf-11" target="7JX_YpENttwIk4AB1Mbf-21" edge="1">
          <mxGeometry relative="1" as="geometry" />
        </mxCell>
        <mxCell id="7JX_YpENttwIk4AB1Mbf-23" value="DAS (Database Activity Stream)" style="edgeLabel;html=1;align=center;verticalAlign=middle;resizable=0;points=[];" parent="7JX_YpENttwIk4AB1Mbf-22" vertex="1" connectable="0">
          <mxGeometry x="0.2773" y="-1" relative="1" as="geometry">
            <mxPoint as="offset" />
          </mxGeometry>
        </mxCell>
        <mxCell id="7JX_YpENttwIk4AB1Mbf-11" value="Aurora" style="sketch=0;points=[[0,0,0],[0.25,0,0],[0.5,0,0],[0.75,0,0],[1,0,0],[0,1,0],[0.25,1,0],[0.5,1,0],[0.75,1,0],[1,1,0],[0,0.25,0],[0,0.5,0],[0,0.75,0],[1,0.25,0],[1,0.5,0],[1,0.75,0]];outlineConnect=0;fontColor=#232F3E;gradientColor=#4D72F3;gradientDirection=north;fillColor=#3334B9;strokeColor=#ffffff;dashed=0;verticalLabelPosition=bottom;verticalAlign=top;align=center;html=1;fontSize=12;fontStyle=0;aspect=fixed;shape=mxgraph.aws4.resourceIcon;resIcon=mxgraph.aws4.aurora;" parent="1" vertex="1">
          <mxGeometry x="719.5" y="-666" width="48" height="48" as="geometry" />
        </mxCell>
        <mxCell id="7JX_YpENttwIk4AB1Mbf-19" style="edgeStyle=orthogonalEdgeStyle;rounded=0;orthogonalLoop=1;jettySize=auto;html=1;entryX=0;entryY=0.5;entryDx=0;entryDy=0;entryPerimeter=0;" parent="1" source="7JX_YpENttwIk4AB1Mbf-12" target="7JX_YpENttwIk4AB1Mbf-18" edge="1">
          <mxGeometry relative="1" as="geometry" />
        </mxCell>
        <mxCell id="7JX_YpENttwIk4AB1Mbf-12" value="Cloudwatch" style="sketch=0;points=[[0,0,0],[0.25,0,0],[0.5,0,0],[0.75,0,0],[1,0,0],[0,1,0],[0.25,1,0],[0.5,1,0],[0.75,1,0],[1,1,0],[0,0.25,0],[0,0.5,0],[0,0.75,0],[1,0.25,0],[1,0.5,0],[1,0.75,0]];points=[[0,0,0],[0.25,0,0],[0.5,0,0],[0.75,0,0],[1,0,0],[0,1,0],[0.25,1,0],[0.5,1,0],[0.75,1,0],[1,1,0],[0,0.25,0],[0,0.5,0],[0,0.75,0],[1,0.25,0],[1,0.5,0],[1,0.75,0]];outlineConnect=0;fontColor=#232F3E;gradientColor=#F34482;gradientDirection=north;fillColor=#BC1356;strokeColor=#ffffff;dashed=0;verticalLabelPosition=bottom;verticalAlign=top;align=center;html=1;fontSize=12;fontStyle=0;aspect=fixed;shape=mxgraph.aws4.resourceIcon;resIcon=mxgraph.aws4.cloudwatch_2;" parent="1" vertex="1">
          <mxGeometry x="1085.5" y="-668" width="52" height="52" as="geometry" />
        </mxCell>
        <mxCell id="7JX_YpENttwIk4AB1Mbf-14" value="Publish logs" style="text;html=1;strokeColor=none;fillColor=none;align=center;verticalAlign=middle;whiteSpace=wrap;rounded=0;" parent="1" vertex="1">
          <mxGeometry x="841.5" y="-680" width="150" height="30" as="geometry" />
        </mxCell>
        <mxCell id="7JX_YpENttwIk4AB1Mbf-17" value="&lt;ul&gt;&lt;li&gt;connections / disconnections&lt;/li&gt;&lt;li&gt;log_statements (DDL or/and DML)&lt;/li&gt;&lt;li&gt;can log only slow queries (threshold to specify)&lt;/li&gt;&lt;/ul&gt;" style="text;html=1;strokeColor=none;fillColor=none;align=left;verticalAlign=middle;whiteSpace=wrap;rounded=0;" parent="1" vertex="1">
          <mxGeometry x="805.5" y="-630" width="280" height="60" as="geometry" />
        </mxCell>
        <mxCell id="7JX_YpENttwIk4AB1Mbf-18" value="S3" style="sketch=0;points=[[0,0,0],[0.25,0,0],[0.5,0,0],[0.75,0,0],[1,0,0],[0,1,0],[0.25,1,0],[0.5,1,0],[0.75,1,0],[1,1,0],[0,0.25,0],[0,0.5,0],[0,0.75,0],[1,0.25,0],[1,0.5,0],[1,0.75,0]];outlineConnect=0;fontColor=#232F3E;gradientColor=#60A337;gradientDirection=north;fillColor=#277116;strokeColor=#ffffff;dashed=0;verticalLabelPosition=bottom;verticalAlign=top;align=center;html=1;fontSize=12;fontStyle=0;aspect=fixed;shape=mxgraph.aws4.resourceIcon;resIcon=mxgraph.aws4.s3;" parent="1" vertex="1">
          <mxGeometry x="1317.5" y="-666" width="48" height="48" as="geometry" />
        </mxCell>
        <mxCell id="7JX_YpENttwIk4AB1Mbf-20" value="Export to S3 for long term archiving" style="text;html=1;strokeColor=none;fillColor=none;align=center;verticalAlign=middle;whiteSpace=wrap;rounded=0;" parent="1" vertex="1">
          <mxGeometry x="1147.5" y="-680" width="150" height="30" as="geometry" />
        </mxCell>
        <mxCell id="7JX_YpENttwIk4AB1Mbf-25" style="edgeStyle=orthogonalEdgeStyle;rounded=0;orthogonalLoop=1;jettySize=auto;html=1;entryX=0;entryY=0.5;entryDx=0;entryDy=0;entryPerimeter=0;" parent="1" source="7JX_YpENttwIk4AB1Mbf-21" target="7JX_YpENttwIk4AB1Mbf-24" edge="1">
          <mxGeometry relative="1" as="geometry" />
        </mxCell>
        <mxCell id="7JX_YpENttwIk4AB1Mbf-27" value="React on real time" style="edgeStyle=orthogonalEdgeStyle;rounded=0;orthogonalLoop=1;jettySize=auto;html=1;entryX=0;entryY=0.5;entryDx=0;entryDy=0;entryPerimeter=0;" parent="1" source="7JX_YpENttwIk4AB1Mbf-21" target="7JX_YpENttwIk4AB1Mbf-26" edge="1">
          <mxGeometry relative="1" as="geometry" />
        </mxCell>
        <mxCell id="7JX_YpENttwIk4AB1Mbf-21" value="Kinesis Streams" style="sketch=0;points=[[0,0,0],[0.25,0,0],[0.5,0,0],[0.75,0,0],[1,0,0],[0,1,0],[0.25,1,0],[0.5,1,0],[0.75,1,0],[1,1,0],[0,0.25,0],[0,0.5,0],[0,0.75,0],[1,0.25,0],[1,0.5,0],[1,0.75,0]];outlineConnect=0;fontColor=#232F3E;gradientColor=#945DF2;gradientDirection=north;fillColor=#5A30B5;strokeColor=#ffffff;dashed=0;verticalLabelPosition=bottom;verticalAlign=top;align=center;html=1;fontSize=12;fontStyle=0;aspect=fixed;shape=mxgraph.aws4.resourceIcon;resIcon=mxgraph.aws4.kinesis_data_streams;" parent="1" vertex="1">
          <mxGeometry x="877.5" y="-482" width="50" height="50" as="geometry" />
        </mxCell>
        <mxCell id="7JX_YpENttwIk4AB1Mbf-29" style="edgeStyle=orthogonalEdgeStyle;rounded=0;orthogonalLoop=1;jettySize=auto;html=1;entryX=0;entryY=0.5;entryDx=0;entryDy=0;entryPerimeter=0;" parent="1" source="7JX_YpENttwIk4AB1Mbf-24" target="7JX_YpENttwIk4AB1Mbf-28" edge="1">
          <mxGeometry relative="1" as="geometry" />
        </mxCell>
        <mxCell id="7JX_YpENttwIk4AB1Mbf-31" style="edgeStyle=orthogonalEdgeStyle;rounded=0;orthogonalLoop=1;jettySize=auto;html=1;entryX=0;entryY=0.5;entryDx=0;entryDy=0;entryPerimeter=0;" parent="1" source="7JX_YpENttwIk4AB1Mbf-24" target="7JX_YpENttwIk4AB1Mbf-30" edge="1">
          <mxGeometry relative="1" as="geometry" />
        </mxCell>
        <mxCell id="7JX_YpENttwIk4AB1Mbf-24" value="Kinesis Firehose" style="sketch=0;points=[[0,0,0],[0.25,0,0],[0.5,0,0],[0.75,0,0],[1,0,0],[0,1,0],[0.25,1,0],[0.5,1,0],[0.75,1,0],[1,1,0],[0,0.25,0],[0,0.5,0],[0,0.75,0],[1,0.25,0],[1,0.5,0],[1,0.75,0]];outlineConnect=0;fontColor=#232F3E;gradientColor=#945DF2;gradientDirection=north;fillColor=#5A30B5;strokeColor=#ffffff;dashed=0;verticalLabelPosition=bottom;verticalAlign=top;align=center;html=1;fontSize=12;fontStyle=0;aspect=fixed;shape=mxgraph.aws4.resourceIcon;resIcon=mxgraph.aws4.kinesis_data_firehose;" parent="1" vertex="1">
          <mxGeometry x="1110" y="-484" width="53" height="53" as="geometry" />
        </mxCell>
        <mxCell id="7JX_YpENttwIk4AB1Mbf-26" value="" style="outlineConnect=0;dashed=0;verticalLabelPosition=bottom;verticalAlign=top;align=center;html=1;shape=mxgraph.aws3.lambda_function;fillColor=#F58534;gradientColor=none;" parent="1" vertex="1">
          <mxGeometry x="1039.5" y="-370" width="39" height="42" as="geometry" />
        </mxCell>
        <mxCell id="7JX_YpENttwIk4AB1Mbf-28" value="S3" style="sketch=0;points=[[0,0,0],[0.25,0,0],[0.5,0,0],[0.75,0,0],[1,0,0],[0,1,0],[0.25,1,0],[0.5,1,0],[0.75,1,0],[1,1,0],[0,0.25,0],[0,0.5,0],[0,0.75,0],[1,0.25,0],[1,0.5,0],[1,0.75,0]];outlineConnect=0;fontColor=#232F3E;gradientColor=#60A337;gradientDirection=north;fillColor=#277116;strokeColor=#ffffff;dashed=0;verticalLabelPosition=bottom;verticalAlign=top;align=center;html=1;fontSize=12;fontStyle=0;aspect=fixed;shape=mxgraph.aws4.resourceIcon;resIcon=mxgraph.aws4.s3;" parent="1" vertex="1">
          <mxGeometry x="1267.5" y="-483" width="50" height="50" as="geometry" />
        </mxCell>
        <mxCell id="7JX_YpENttwIk4AB1Mbf-30" value="OpenSearch" style="sketch=0;points=[[0,0,0],[0.25,0,0],[0.5,0,0],[0.75,0,0],[1,0,0],[0,1,0],[0.25,1,0],[0.5,1,0],[0.75,1,0],[1,1,0],[0,0.25,0],[0,0.5,0],[0,0.75,0],[1,0.25,0],[1,0.5,0],[1,0.75,0]];outlineConnect=0;fontColor=#232F3E;gradientColor=#945DF2;gradientDirection=north;fillColor=#5A30B5;strokeColor=#ffffff;dashed=0;verticalLabelPosition=bottom;verticalAlign=top;align=center;html=1;fontSize=12;fontStyle=0;aspect=fixed;shape=mxgraph.aws4.resourceIcon;resIcon=mxgraph.aws4.elasticsearch_service;" parent="1" vertex="1">
          <mxGeometry x="1272.5" y="-392" width="40" height="40" as="geometry" />
        </mxCell>
        <mxCell id="7JX_YpENttwIk4AB1Mbf-33" value="&lt;ul&gt;&lt;li&gt;React on Real time&lt;/li&gt;&lt;li&gt;Kinesis permissions are decoupled from DB admin permissions&lt;/li&gt;&lt;li&gt;Aggregate all databases logs in a single place&lt;/li&gt;&lt;li&gt;Aurora Serverless does not support DAS&lt;/li&gt;&lt;/ul&gt;" style="text;html=1;strokeColor=none;fillColor=none;align=left;verticalAlign=middle;whiteSpace=wrap;rounded=0;" parent="1" vertex="1">
          <mxGeometry x="1357.5" y="-458" width="310" height="88" as="geometry" />
        </mxCell>
        <mxCell id="7JX_YpENttwIk4AB1Mbf-34" value="" style="rounded=0;whiteSpace=wrap;html=1;fillColor=none;dashed=1;" parent="1" vertex="1">
          <mxGeometry x="793.5" y="-750" width="704" height="200" as="geometry" />
        </mxCell>
        <mxCell id="7JX_YpENttwIk4AB1Mbf-35" value="Database logging" style="text;html=1;strokeColor=none;fillColor=none;align=center;verticalAlign=middle;whiteSpace=wrap;rounded=0;" parent="1" vertex="1">
          <mxGeometry x="793.5" y="-750" width="144" height="30" as="geometry" />
        </mxCell>
        <mxCell id="7JX_YpENttwIk4AB1Mbf-43" value="" style="shape=table;startSize=0;container=1;collapsible=0;childLayout=tableLayout;fontSize=16;dashed=1;fillColor=none;" parent="1" vertex="1">
          <mxGeometry x="-603.76" y="418" width="600" height="200" as="geometry" />
        </mxCell>
        <mxCell id="7JX_YpENttwIk4AB1Mbf-44" value="" style="shape=tableRow;horizontal=0;startSize=0;swimlaneHead=0;swimlaneBody=0;strokeColor=inherit;top=0;left=0;bottom=0;right=0;collapsible=0;dropTarget=0;fillColor=none;points=[[0,0.5],[1,0.5]];portConstraint=eastwest;fontSize=16;dashed=1;" parent="7JX_YpENttwIk4AB1Mbf-43" vertex="1">
          <mxGeometry width="600" height="40" as="geometry" />
        </mxCell>
        <mxCell id="7JX_YpENttwIk4AB1Mbf-45" value="&lt;b&gt;PITR&lt;/b&gt;" style="shape=partialRectangle;html=1;whiteSpace=wrap;connectable=0;strokeColor=inherit;overflow=hidden;fillColor=none;top=0;left=0;bottom=0;right=0;pointerEvents=1;fontSize=16;dashed=1;" parent="7JX_YpENttwIk4AB1Mbf-44" vertex="1">
          <mxGeometry width="201" height="40" as="geometry">
            <mxRectangle width="201" height="40" as="alternateBounds" />
          </mxGeometry>
        </mxCell>
        <mxCell id="7JX_YpENttwIk4AB1Mbf-46" value="&lt;b&gt;Snapshot&lt;/b&gt;" style="shape=partialRectangle;html=1;whiteSpace=wrap;connectable=0;strokeColor=inherit;overflow=hidden;fillColor=none;top=0;left=0;bottom=0;right=0;pointerEvents=1;fontSize=16;dashed=1;" parent="7JX_YpENttwIk4AB1Mbf-44" vertex="1">
          <mxGeometry x="201" width="198" height="40" as="geometry">
            <mxRectangle width="198" height="40" as="alternateBounds" />
          </mxGeometry>
        </mxCell>
        <mxCell id="7JX_YpENttwIk4AB1Mbf-47" value="&lt;b&gt;Backtrack&lt;/b&gt;" style="shape=partialRectangle;html=1;whiteSpace=wrap;connectable=0;strokeColor=inherit;overflow=hidden;fillColor=none;top=0;left=0;bottom=0;right=0;pointerEvents=1;fontSize=16;dashed=1;" parent="7JX_YpENttwIk4AB1Mbf-44" vertex="1">
          <mxGeometry x="399" width="201" height="40" as="geometry">
            <mxRectangle width="201" height="40" as="alternateBounds" />
          </mxGeometry>
        </mxCell>
        <mxCell id="7JX_YpENttwIk4AB1Mbf-48" value="" style="shape=tableRow;horizontal=0;startSize=0;swimlaneHead=0;swimlaneBody=0;strokeColor=inherit;top=0;left=0;bottom=0;right=0;collapsible=0;dropTarget=0;fillColor=none;points=[[0,0.5],[1,0.5]];portConstraint=eastwest;fontSize=16;dashed=1;" parent="7JX_YpENttwIk4AB1Mbf-43" vertex="1">
          <mxGeometry y="40" width="600" height="40" as="geometry" />
        </mxCell>
        <mxCell id="7JX_YpENttwIk4AB1Mbf-49" value="Automated" style="shape=partialRectangle;html=1;whiteSpace=wrap;connectable=0;strokeColor=inherit;overflow=hidden;fillColor=none;top=0;left=0;bottom=0;right=0;pointerEvents=1;fontSize=16;dashed=1;" parent="7JX_YpENttwIk4AB1Mbf-48" vertex="1">
          <mxGeometry width="201" height="40" as="geometry">
            <mxRectangle width="201" height="40" as="alternateBounds" />
          </mxGeometry>
        </mxCell>
        <mxCell id="7JX_YpENttwIk4AB1Mbf-50" value="Manual" style="shape=partialRectangle;html=1;whiteSpace=wrap;connectable=0;strokeColor=inherit;overflow=hidden;fillColor=none;top=0;left=0;bottom=0;right=0;pointerEvents=1;fontSize=16;dashed=1;" parent="7JX_YpENttwIk4AB1Mbf-48" vertex="1">
          <mxGeometry x="201" width="198" height="40" as="geometry">
            <mxRectangle width="198" height="40" as="alternateBounds" />
          </mxGeometry>
        </mxCell>
        <mxCell id="7JX_YpENttwIk4AB1Mbf-51" value="Automated" style="shape=partialRectangle;html=1;whiteSpace=wrap;connectable=0;strokeColor=inherit;overflow=hidden;fillColor=none;top=0;left=0;bottom=0;right=0;pointerEvents=1;fontSize=16;dashed=1;" parent="7JX_YpENttwIk4AB1Mbf-48" vertex="1">
          <mxGeometry x="399" width="201" height="40" as="geometry">
            <mxRectangle width="201" height="40" as="alternateBounds" />
          </mxGeometry>
        </mxCell>
        <mxCell id="7JX_YpENttwIk4AB1Mbf-52" value="" style="shape=tableRow;horizontal=0;startSize=0;swimlaneHead=0;swimlaneBody=0;strokeColor=inherit;top=0;left=0;bottom=0;right=0;collapsible=0;dropTarget=0;fillColor=none;points=[[0,0.5],[1,0.5]];portConstraint=eastwest;fontSize=16;dashed=1;" parent="7JX_YpENttwIk4AB1Mbf-43" vertex="1">
          <mxGeometry y="80" width="600" height="40" as="geometry" />
        </mxCell>
        <mxCell id="7JX_YpENttwIk4AB1Mbf-53" value="restore to a &lt;b&gt;new &lt;/b&gt;instance (&lt;b&gt;hours&lt;/b&gt;)" style="shape=partialRectangle;html=1;whiteSpace=wrap;connectable=0;strokeColor=inherit;overflow=hidden;fillColor=none;top=0;left=0;bottom=0;right=0;pointerEvents=1;fontSize=16;dashed=1;" parent="7JX_YpENttwIk4AB1Mbf-52" vertex="1">
          <mxGeometry width="201" height="40" as="geometry">
            <mxRectangle width="201" height="40" as="alternateBounds" />
          </mxGeometry>
        </mxCell>
        <mxCell id="7JX_YpENttwIk4AB1Mbf-54" value="restore to a &lt;b&gt;new &lt;/b&gt;instance (&lt;b&gt;hours&lt;/b&gt;)" style="shape=partialRectangle;html=1;whiteSpace=wrap;connectable=0;strokeColor=inherit;overflow=hidden;fillColor=none;top=0;left=0;bottom=0;right=0;pointerEvents=1;fontSize=16;dashed=1;" parent="7JX_YpENttwIk4AB1Mbf-52" vertex="1">
          <mxGeometry x="201" width="198" height="40" as="geometry">
            <mxRectangle width="198" height="40" as="alternateBounds" />
          </mxGeometry>
        </mxCell>
        <mxCell id="7JX_YpENttwIk4AB1Mbf-55" value="restore to &lt;b&gt;same &lt;/b&gt;instance (&lt;b&gt;minutes&lt;/b&gt;)" style="shape=partialRectangle;html=1;whiteSpace=wrap;connectable=0;strokeColor=inherit;overflow=hidden;fillColor=none;top=0;left=0;bottom=0;right=0;pointerEvents=1;fontSize=16;dashed=1;" parent="7JX_YpENttwIk4AB1Mbf-52" vertex="1">
          <mxGeometry x="399" width="201" height="40" as="geometry">
            <mxRectangle width="201" height="40" as="alternateBounds" />
          </mxGeometry>
        </mxCell>
        <mxCell id="7JX_YpENttwIk4AB1Mbf-67" style="shape=tableRow;horizontal=0;startSize=0;swimlaneHead=0;swimlaneBody=0;strokeColor=inherit;top=0;left=0;bottom=0;right=0;collapsible=0;dropTarget=0;fillColor=none;points=[[0,0.5],[1,0.5]];portConstraint=eastwest;fontSize=16;dashed=1;" parent="7JX_YpENttwIk4AB1Mbf-43" vertex="1">
          <mxGeometry y="120" width="600" height="40" as="geometry" />
        </mxCell>
        <mxCell id="7JX_YpENttwIk4AB1Mbf-68" value="5 min to 35 days" style="shape=partialRectangle;html=1;whiteSpace=wrap;connectable=0;strokeColor=inherit;overflow=hidden;fillColor=none;top=0;left=0;bottom=0;right=0;pointerEvents=1;fontSize=16;dashed=1;" parent="7JX_YpENttwIk4AB1Mbf-67" vertex="1">
          <mxGeometry width="201" height="40" as="geometry">
            <mxRectangle width="201" height="40" as="alternateBounds" />
          </mxGeometry>
        </mxCell>
        <mxCell id="7JX_YpENttwIk4AB1Mbf-69" value="no max retention" style="shape=partialRectangle;html=1;whiteSpace=wrap;connectable=0;strokeColor=inherit;overflow=hidden;fillColor=none;top=0;left=0;bottom=0;right=0;pointerEvents=1;fontSize=16;dashed=1;" parent="7JX_YpENttwIk4AB1Mbf-67" vertex="1">
          <mxGeometry x="201" width="198" height="40" as="geometry">
            <mxRectangle width="198" height="40" as="alternateBounds" />
          </mxGeometry>
        </mxCell>
        <mxCell id="7JX_YpENttwIk4AB1Mbf-70" value="72 hrs max" style="shape=partialRectangle;html=1;whiteSpace=wrap;connectable=0;strokeColor=inherit;overflow=hidden;fillColor=none;top=0;left=0;bottom=0;right=0;pointerEvents=1;fontSize=16;dashed=1;" parent="7JX_YpENttwIk4AB1Mbf-67" vertex="1">
          <mxGeometry x="399" width="201" height="40" as="geometry">
            <mxRectangle width="201" height="40" as="alternateBounds" />
          </mxGeometry>
        </mxCell>
        <mxCell id="7JX_YpENttwIk4AB1Mbf-63" style="shape=tableRow;horizontal=0;startSize=0;swimlaneHead=0;swimlaneBody=0;strokeColor=inherit;top=0;left=0;bottom=0;right=0;collapsible=0;dropTarget=0;fillColor=none;points=[[0,0.5],[1,0.5]];portConstraint=eastwest;fontSize=16;dashed=1;" parent="7JX_YpENttwIk4AB1Mbf-43" vertex="1">
          <mxGeometry y="160" width="600" height="40" as="geometry" />
        </mxCell>
        <mxCell id="7JX_YpENttwIk4AB1Mbf-64" value="linked to DB lifecycle" style="shape=partialRectangle;html=1;whiteSpace=wrap;connectable=0;strokeColor=inherit;overflow=hidden;fillColor=none;top=0;left=0;bottom=0;right=0;pointerEvents=1;fontSize=16;dashed=1;" parent="7JX_YpENttwIk4AB1Mbf-63" vertex="1">
          <mxGeometry width="201" height="40" as="geometry">
            <mxRectangle width="201" height="40" as="alternateBounds" />
          </mxGeometry>
        </mxCell>
        <mxCell id="7JX_YpENttwIk4AB1Mbf-65" value="decoupled from DB lifecycle" style="shape=partialRectangle;html=1;whiteSpace=wrap;connectable=0;strokeColor=inherit;overflow=hidden;fillColor=none;top=0;left=0;bottom=0;right=0;pointerEvents=1;fontSize=16;dashed=1;" parent="7JX_YpENttwIk4AB1Mbf-63" vertex="1">
          <mxGeometry x="201" width="198" height="40" as="geometry">
            <mxRectangle width="198" height="40" as="alternateBounds" />
          </mxGeometry>
        </mxCell>
        <mxCell id="7JX_YpENttwIk4AB1Mbf-66" value="linked to DB lifecycle" style="shape=partialRectangle;html=1;whiteSpace=wrap;connectable=0;strokeColor=inherit;overflow=hidden;fillColor=none;top=0;left=0;bottom=0;right=0;pointerEvents=1;fontSize=16;dashed=1;" parent="7JX_YpENttwIk4AB1Mbf-63" vertex="1">
          <mxGeometry x="399" width="201" height="40" as="geometry">
            <mxRectangle width="201" height="40" as="alternateBounds" />
          </mxGeometry>
        </mxCell>
        <mxCell id="7JX_YpENttwIk4AB1Mbf-81" style="edgeStyle=orthogonalEdgeStyle;rounded=0;orthogonalLoop=1;jettySize=auto;html=1;entryX=0.5;entryY=0;entryDx=0;entryDy=0;entryPerimeter=0;fontColor=#009900;" parent="1" source="7JX_YpENttwIk4AB1Mbf-71" target="7JX_YpENttwIk4AB1Mbf-79" edge="1">
          <mxGeometry relative="1" as="geometry" />
        </mxCell>
        <mxCell id="7JX_YpENttwIk4AB1Mbf-82" style="edgeStyle=orthogonalEdgeStyle;rounded=0;orthogonalLoop=1;jettySize=auto;html=1;entryX=0.5;entryY=0;entryDx=0;entryDy=0;entryPerimeter=0;fontColor=#009900;" parent="1" source="7JX_YpENttwIk4AB1Mbf-71" target="7JX_YpENttwIk4AB1Mbf-74" edge="1">
          <mxGeometry relative="1" as="geometry" />
        </mxCell>
        <mxCell id="7JX_YpENttwIk4AB1Mbf-83" style="edgeStyle=orthogonalEdgeStyle;rounded=0;orthogonalLoop=1;jettySize=auto;html=1;entryX=0.5;entryY=0;entryDx=0;entryDy=0;entryPerimeter=0;fontColor=#009900;" parent="1" source="7JX_YpENttwIk4AB1Mbf-71" target="7JX_YpENttwIk4AB1Mbf-75" edge="1">
          <mxGeometry relative="1" as="geometry" />
        </mxCell>
        <mxCell id="7JX_YpENttwIk4AB1Mbf-84" style="edgeStyle=orthogonalEdgeStyle;rounded=0;orthogonalLoop=1;jettySize=auto;html=1;entryX=0.5;entryY=0;entryDx=0;entryDy=0;entryPerimeter=0;fontColor=#009900;exitX=0.5;exitY=1;exitDx=0;exitDy=0;exitPerimeter=0;" parent="1" source="7JX_YpENttwIk4AB1Mbf-71" target="7JX_YpENttwIk4AB1Mbf-76" edge="1">
          <mxGeometry relative="1" as="geometry" />
        </mxCell>
        <mxCell id="7JX_YpENttwIk4AB1Mbf-89" style="edgeStyle=orthogonalEdgeStyle;rounded=0;orthogonalLoop=1;jettySize=auto;html=1;entryX=0.5;entryY=0;entryDx=0;entryDy=0;entryPerimeter=0;fontColor=#FFB366;dashed=1;exitX=0.5;exitY=1;exitDx=0;exitDy=0;exitPerimeter=0;" parent="1" source="7JX_YpENttwIk4AB1Mbf-71" target="7JX_YpENttwIk4AB1Mbf-73" edge="1">
          <mxGeometry relative="1" as="geometry" />
        </mxCell>
        <mxCell id="7JX_YpENttwIk4AB1Mbf-71" value="&lt;font color=&quot;#ffb366&quot;&gt;Aurora Primary Cluster&lt;/font&gt;" style="sketch=0;points=[[0,0,0],[0.25,0,0],[0.5,0,0],[0.75,0,0],[1,0,0],[0,1,0],[0.25,1,0],[0.5,1,0],[0.75,1,0],[1,1,0],[0,0.25,0],[0,0.5,0],[0,0.75,0],[1,0.25,0],[1,0.5,0],[1,0.75,0]];outlineConnect=0;fontColor=#232F3E;gradientColor=#4D72F3;gradientDirection=north;fillColor=#3334B9;strokeColor=#ffffff;dashed=0;verticalLabelPosition=bottom;verticalAlign=top;align=center;html=1;fontSize=12;fontStyle=0;aspect=fixed;shape=mxgraph.aws4.resourceIcon;resIcon=mxgraph.aws4.aurora;" parent="1" vertex="1">
          <mxGeometry x="-501.76" y="738" width="50" height="50" as="geometry" />
        </mxCell>
        <mxCell id="7JX_YpENttwIk4AB1Mbf-85" style="edgeStyle=orthogonalEdgeStyle;rounded=0;orthogonalLoop=1;jettySize=auto;html=1;entryX=0.5;entryY=1;entryDx=0;entryDy=0;entryPerimeter=0;fontColor=#009900;" parent="1" source="7JX_YpENttwIk4AB1Mbf-72" target="7JX_YpENttwIk4AB1Mbf-74" edge="1">
          <mxGeometry relative="1" as="geometry" />
        </mxCell>
        <mxCell id="7JX_YpENttwIk4AB1Mbf-86" style="edgeStyle=orthogonalEdgeStyle;rounded=0;orthogonalLoop=1;jettySize=auto;html=1;fontColor=#009900;" parent="1" source="7JX_YpENttwIk4AB1Mbf-72" target="7JX_YpENttwIk4AB1Mbf-75" edge="1">
          <mxGeometry relative="1" as="geometry" />
        </mxCell>
        <mxCell id="7JX_YpENttwIk4AB1Mbf-87" style="edgeStyle=orthogonalEdgeStyle;rounded=0;orthogonalLoop=1;jettySize=auto;html=1;entryX=0.5;entryY=1;entryDx=0;entryDy=0;entryPerimeter=0;fontColor=#009900;exitX=0.5;exitY=0;exitDx=0;exitDy=0;exitPerimeter=0;" parent="1" source="7JX_YpENttwIk4AB1Mbf-72" target="7JX_YpENttwIk4AB1Mbf-76" edge="1">
          <mxGeometry relative="1" as="geometry" />
        </mxCell>
        <mxCell id="7JX_YpENttwIk4AB1Mbf-88" style="edgeStyle=orthogonalEdgeStyle;rounded=0;orthogonalLoop=1;jettySize=auto;html=1;exitX=1;exitY=0.5;exitDx=0;exitDy=0;exitPerimeter=0;entryX=0.5;entryY=1;entryDx=0;entryDy=0;entryPerimeter=0;fontColor=#009900;" parent="1" source="7JX_YpENttwIk4AB1Mbf-72" target="7JX_YpENttwIk4AB1Mbf-80" edge="1">
          <mxGeometry relative="1" as="geometry" />
        </mxCell>
        <mxCell id="7JX_YpENttwIk4AB1Mbf-90" style="edgeStyle=orthogonalEdgeStyle;rounded=0;orthogonalLoop=1;jettySize=auto;html=1;dashed=1;fontColor=#FFB366;exitX=0.5;exitY=0;exitDx=0;exitDy=0;exitPerimeter=0;" parent="1" source="7JX_YpENttwIk4AB1Mbf-72" target="7JX_YpENttwIk4AB1Mbf-73" edge="1">
          <mxGeometry relative="1" as="geometry" />
        </mxCell>
        <mxCell id="7JX_YpENttwIk4AB1Mbf-72" value="&lt;font color=&quot;#009900&quot;&gt;Aurora Clone Cluster&lt;/font&gt;" style="sketch=0;points=[[0,0,0],[0.25,0,0],[0.5,0,0],[0.75,0,0],[1,0,0],[0,1,0],[0.25,1,0],[0.5,1,0],[0.75,1,0],[1,1,0],[0,0.25,0],[0,0.5,0],[0,0.75,0],[1,0.25,0],[1,0.5,0],[1,0.75,0]];outlineConnect=0;fontColor=#232F3E;gradientColor=#4D72F3;gradientDirection=north;fillColor=#3334B9;strokeColor=#ffffff;dashed=0;verticalLabelPosition=bottom;verticalAlign=top;align=center;html=1;fontSize=12;fontStyle=0;aspect=fixed;shape=mxgraph.aws4.resourceIcon;resIcon=mxgraph.aws4.aurora;" parent="1" vertex="1">
          <mxGeometry x="-501.76" y="1048" width="50" height="50" as="geometry" />
        </mxCell>
        <mxCell id="7JX_YpENttwIk4AB1Mbf-73" value="1" style="shape=mxgraph.cisco.misc.page_icon;html=1;pointerEvents=1;dashed=0;fillColor=#036897;strokeColor=#ffffff;strokeWidth=2;verticalLabelPosition=bottom;verticalAlign=top;align=center;outlineConnect=0;" parent="1" vertex="1">
          <mxGeometry x="-593.76" y="888" width="32" height="49" as="geometry" />
        </mxCell>
        <mxCell id="7JX_YpENttwIk4AB1Mbf-74" value="2" style="shape=mxgraph.cisco.misc.page_icon;html=1;pointerEvents=1;dashed=0;fillColor=#036897;strokeColor=#ffffff;strokeWidth=2;verticalLabelPosition=bottom;verticalAlign=top;align=center;outlineConnect=0;" parent="1" vertex="1">
          <mxGeometry x="-533.76" y="888" width="32" height="49" as="geometry" />
        </mxCell>
        <mxCell id="7JX_YpENttwIk4AB1Mbf-75" value="3" style="shape=mxgraph.cisco.misc.page_icon;html=1;pointerEvents=1;dashed=0;fillColor=#036897;strokeColor=#ffffff;strokeWidth=2;verticalLabelPosition=bottom;verticalAlign=top;align=center;outlineConnect=0;" parent="1" vertex="1">
          <mxGeometry x="-473.76" y="888" width="32" height="49" as="geometry" />
        </mxCell>
        <mxCell id="7JX_YpENttwIk4AB1Mbf-76" value="4" style="shape=mxgraph.cisco.misc.page_icon;html=1;pointerEvents=1;dashed=0;fillColor=#036897;strokeColor=#ffffff;strokeWidth=2;verticalLabelPosition=bottom;verticalAlign=top;align=center;outlineConnect=0;" parent="1" vertex="1">
          <mxGeometry x="-410.76" y="888" width="32" height="49" as="geometry" />
        </mxCell>
        <mxCell id="7JX_YpENttwIk4AB1Mbf-78" value="&lt;ul&gt;&lt;li&gt;Support Cross account cloning&lt;/li&gt;&lt;li&gt;Clone must be in the same region&lt;/li&gt;&lt;li&gt;Clone must in a VPC that maps to the same AZ than the original VPC&lt;/li&gt;&lt;/ul&gt;" style="text;html=1;strokeColor=none;fillColor=none;align=left;verticalAlign=middle;whiteSpace=wrap;rounded=0;" parent="1" vertex="1">
          <mxGeometry x="-273.76" y="888" width="440" height="60" as="geometry" />
        </mxCell>
        <mxCell id="7JX_YpENttwIk4AB1Mbf-79" value="&lt;font color=&quot;#ffb366&quot;&gt;1a&lt;/font&gt;" style="shape=mxgraph.cisco.misc.page_icon;html=1;pointerEvents=1;dashed=0;fillColor=#ffe6cc;strokeColor=#d79b00;strokeWidth=2;verticalLabelPosition=bottom;verticalAlign=top;align=center;outlineConnect=0;" parent="1" vertex="1">
          <mxGeometry x="-653.76" y="888" width="32" height="49" as="geometry" />
        </mxCell>
        <mxCell id="7JX_YpENttwIk4AB1Mbf-80" value="&lt;font color=&quot;#009900&quot;&gt;1b&lt;/font&gt;" style="shape=mxgraph.cisco.misc.page_icon;html=1;pointerEvents=1;dashed=0;fillColor=#60a917;strokeColor=#2D7600;strokeWidth=2;verticalLabelPosition=bottom;verticalAlign=top;align=center;outlineConnect=0;fontColor=#ffffff;" parent="1" vertex="1">
          <mxGeometry x="-355.76" y="888" width="32" height="49" as="geometry" />
        </mxCell>
        <mxCell id="7JX_YpENttwIk4AB1Mbf-93" style="edgeStyle=orthogonalEdgeStyle;rounded=0;orthogonalLoop=1;jettySize=auto;html=1;entryX=0;entryY=0.5;entryDx=0;entryDy=0;entryPerimeter=0;fontColor=#FFB366;" parent="1" source="7JX_YpENttwIk4AB1Mbf-91" target="7JX_YpENttwIk4AB1Mbf-92" edge="1">
          <mxGeometry relative="1" as="geometry" />
        </mxCell>
        <mxCell id="7JX_YpENttwIk4AB1Mbf-91" value="Aurora" style="sketch=0;points=[[0,0,0],[0.25,0,0],[0.5,0,0],[0.75,0,0],[1,0,0],[0,1,0],[0.25,1,0],[0.5,1,0],[0.75,1,0],[1,1,0],[0,0.25,0],[0,0.5,0],[0,0.75,0],[1,0.25,0],[1,0.5,0],[1,0.75,0]];outlineConnect=0;fontColor=#232F3E;gradientColor=#4D72F3;gradientDirection=north;fillColor=#3334B9;strokeColor=#ffffff;dashed=0;verticalLabelPosition=bottom;verticalAlign=top;align=center;html=1;fontSize=12;fontStyle=0;aspect=fixed;shape=mxgraph.aws4.resourceIcon;resIcon=mxgraph.aws4.aurora;" parent="1" vertex="1">
          <mxGeometry x="-688.26" y="1830" width="54" height="54" as="geometry" />
        </mxCell>
        <mxCell id="7JX_YpENttwIk4AB1Mbf-98" style="edgeStyle=orthogonalEdgeStyle;rounded=0;orthogonalLoop=1;jettySize=auto;html=1;entryX=0;entryY=0.5;entryDx=0;entryDy=0;fontColor=#000000;" parent="1" source="7JX_YpENttwIk4AB1Mbf-92" target="7JX_YpENttwIk4AB1Mbf-96" edge="1">
          <mxGeometry relative="1" as="geometry" />
        </mxCell>
        <mxCell id="7JX_YpENttwIk4AB1Mbf-99" style="edgeStyle=orthogonalEdgeStyle;rounded=0;orthogonalLoop=1;jettySize=auto;html=1;entryX=0;entryY=0.5;entryDx=0;entryDy=0;fontColor=#000000;" parent="1" source="7JX_YpENttwIk4AB1Mbf-92" target="7JX_YpENttwIk4AB1Mbf-97" edge="1">
          <mxGeometry relative="1" as="geometry" />
        </mxCell>
        <mxCell id="7JX_YpENttwIk4AB1Mbf-92" value="Redshift" style="sketch=0;points=[[0,0,0],[0.25,0,0],[0.5,0,0],[0.75,0,0],[1,0,0],[0,1,0],[0.25,1,0],[0.5,1,0],[0.75,1,0],[1,1,0],[0,0.25,0],[0,0.5,0],[0,0.75,0],[1,0.25,0],[1,0.5,0],[1,0.75,0]];outlineConnect=0;fontColor=#232F3E;gradientColor=#945DF2;gradientDirection=north;fillColor=#5A30B5;strokeColor=#ffffff;dashed=0;verticalLabelPosition=bottom;verticalAlign=top;align=center;html=1;fontSize=12;fontStyle=0;aspect=fixed;shape=mxgraph.aws4.resourceIcon;resIcon=mxgraph.aws4.redshift;" parent="1" vertex="1">
          <mxGeometry x="-368.26" y="1830" width="56" height="56" as="geometry" />
        </mxCell>
        <mxCell id="7JX_YpENttwIk4AB1Mbf-95" value="&lt;ul&gt;&lt;li&gt;Managed pipeline&lt;/li&gt;&lt;li&gt;can filter at database and table level&lt;/li&gt;&lt;/ul&gt;" style="text;html=1;strokeColor=none;fillColor=none;align=left;verticalAlign=middle;whiteSpace=wrap;rounded=0;fontColor=#000000;" parent="1" vertex="1">
          <mxGeometry x="-612.26" y="1818" width="268" height="30" as="geometry" />
        </mxCell>
        <mxCell id="7JX_YpENttwIk4AB1Mbf-96" value="Analytics Queries" style="text;html=1;strokeColor=none;fillColor=none;align=center;verticalAlign=middle;whiteSpace=wrap;rounded=0;fontColor=#000000;" parent="1" vertex="1">
          <mxGeometry x="-214.26" y="1788" width="60" height="30" as="geometry" />
        </mxCell>
        <mxCell id="7JX_YpENttwIk4AB1Mbf-97" value="ML" style="text;html=1;strokeColor=none;fillColor=none;align=center;verticalAlign=middle;whiteSpace=wrap;rounded=0;fontColor=#000000;" parent="1" vertex="1">
          <mxGeometry x="-214.26" y="1898" width="60" height="30" as="geometry" />
        </mxCell>
        <mxCell id="7JX_YpENttwIk4AB1Mbf-101" style="edgeStyle=orthogonalEdgeStyle;rounded=0;orthogonalLoop=1;jettySize=auto;html=1;entryX=1;entryY=0.5;entryDx=0;entryDy=0;fontColor=#000000;" parent="1" source="7JX_YpENttwIk4AB1Mbf-100" target="7JX_YpENttwIk4AB1Mbf-96" edge="1">
          <mxGeometry relative="1" as="geometry" />
        </mxCell>
        <mxCell id="7JX_YpENttwIk4AB1Mbf-102" style="edgeStyle=orthogonalEdgeStyle;rounded=0;orthogonalLoop=1;jettySize=auto;html=1;entryX=1;entryY=0.5;entryDx=0;entryDy=0;fontColor=#000000;" parent="1" source="7JX_YpENttwIk4AB1Mbf-100" target="7JX_YpENttwIk4AB1Mbf-97" edge="1">
          <mxGeometry relative="1" as="geometry" />
        </mxCell>
        <mxCell id="7JX_YpENttwIk4AB1Mbf-100" value="Data Analyst" style="sketch=0;outlineConnect=0;fontColor=#232F3E;gradientColor=none;fillColor=#232F3D;strokeColor=none;dashed=0;verticalLabelPosition=bottom;verticalAlign=top;align=center;html=1;fontSize=12;fontStyle=0;aspect=fixed;pointerEvents=1;shape=mxgraph.aws4.user;" parent="1" vertex="1">
          <mxGeometry x="-109.26" y="1837" width="50" height="50" as="geometry" />
        </mxCell>
        <mxCell id="7JX_YpENttwIk4AB1Mbf-103" value="&lt;span style=&quot;text-align: left; background-color: initial;&quot;&gt;Serverless OR Provisioned cluster&lt;/span&gt;" style="text;html=1;strokeColor=none;fillColor=none;align=center;verticalAlign=middle;whiteSpace=wrap;rounded=0;fontColor=#000000;" parent="1" vertex="1">
          <mxGeometry x="-434.26" y="1912.5" width="180" height="30" as="geometry" />
        </mxCell>
        <mxCell id="7JX_YpENttwIk4AB1Mbf-106" value="Writer" style="sketch=0;outlineConnect=0;fontColor=#232F3E;gradientColor=none;fillColor=#2E27AD;strokeColor=none;dashed=0;verticalLabelPosition=bottom;verticalAlign=top;align=center;html=1;fontSize=12;fontStyle=0;aspect=fixed;pointerEvents=1;shape=mxgraph.aws4.aurora_instance;" parent="1" vertex="1">
          <mxGeometry x="-424.38" y="-1432" width="48" height="48" as="geometry" />
        </mxCell>
        <mxCell id="7JX_YpENttwIk4AB1Mbf-107" value="Read Replica 1" style="sketch=0;outlineConnect=0;fontColor=#232F3E;gradientColor=none;fillColor=#2E27AD;strokeColor=none;dashed=0;verticalLabelPosition=bottom;verticalAlign=top;align=center;html=1;fontSize=12;fontStyle=0;aspect=fixed;pointerEvents=1;shape=mxgraph.aws4.aurora_instance;" parent="1" vertex="1">
          <mxGeometry x="-324.38" y="-1431" width="48" height="48" as="geometry" />
        </mxCell>
        <mxCell id="7JX_YpENttwIk4AB1Mbf-108" value="Read Replica 2" style="sketch=0;outlineConnect=0;fontColor=#232F3E;gradientColor=none;fillColor=#2E27AD;strokeColor=none;dashed=0;verticalLabelPosition=bottom;verticalAlign=top;align=center;html=1;fontSize=12;fontStyle=0;aspect=fixed;pointerEvents=1;shape=mxgraph.aws4.aurora_instance;" parent="1" vertex="1">
          <mxGeometry x="-193.88" y="-1431" width="48" height="48" as="geometry" />
        </mxCell>
        <mxCell id="7JX_YpENttwIk4AB1Mbf-109" value="Read Replica 3" style="sketch=0;outlineConnect=0;fontColor=#232F3E;gradientColor=none;fillColor=#2E27AD;strokeColor=none;dashed=0;verticalLabelPosition=bottom;verticalAlign=top;align=center;html=1;fontSize=12;fontStyle=0;aspect=fixed;pointerEvents=1;shape=mxgraph.aws4.aurora_instance;" parent="1" vertex="1">
          <mxGeometry x="-76.38" y="-1435" width="48" height="48" as="geometry" />
        </mxCell>
        <mxCell id="7JX_YpENttwIk4AB1Mbf-116" style="edgeStyle=orthogonalEdgeStyle;rounded=0;orthogonalLoop=1;jettySize=auto;html=1;entryX=0.5;entryY=0;entryDx=0;entryDy=0;fontColor=#000000;" parent="1" source="7JX_YpENttwIk4AB1Mbf-111" target="7JX_YpENttwIk4AB1Mbf-115" edge="1">
          <mxGeometry relative="1" as="geometry" />
        </mxCell>
        <mxCell id="7JX_YpENttwIk4AB1Mbf-118" style="edgeStyle=orthogonalEdgeStyle;rounded=0;orthogonalLoop=1;jettySize=auto;html=1;entryX=0.5;entryY=0;entryDx=0;entryDy=0;fontSize=10;fontColor=#000000;" parent="1" source="7JX_YpENttwIk4AB1Mbf-111" target="7JX_YpENttwIk4AB1Mbf-114" edge="1">
          <mxGeometry relative="1" as="geometry" />
        </mxCell>
        <mxCell id="7JX_YpENttwIk4AB1Mbf-123" style="edgeStyle=orthogonalEdgeStyle;rounded=0;orthogonalLoop=1;jettySize=auto;html=1;entryX=0.5;entryY=0;entryDx=0;entryDy=0;fontSize=10;fontColor=#000000;" parent="1" source="7JX_YpENttwIk4AB1Mbf-111" target="7JX_YpENttwIk4AB1Mbf-122" edge="1">
          <mxGeometry relative="1" as="geometry" />
        </mxCell>
        <mxCell id="7JX_YpENttwIk4AB1Mbf-111" value="Client" style="sketch=0;outlineConnect=0;fontColor=#232F3E;gradientColor=none;strokeColor=#232F3E;fillColor=#ffffff;dashed=0;verticalLabelPosition=bottom;verticalAlign=top;align=center;html=1;fontSize=12;fontStyle=0;aspect=fixed;shape=mxgraph.aws4.resourceIcon;resIcon=mxgraph.aws4.client;" parent="1" vertex="1">
          <mxGeometry x="-243.38" y="-1640" width="60" height="60" as="geometry" />
        </mxCell>
        <mxCell id="7JX_YpENttwIk4AB1Mbf-119" style="edgeStyle=orthogonalEdgeStyle;rounded=0;orthogonalLoop=1;jettySize=auto;html=1;exitX=0.5;exitY=1;exitDx=0;exitDy=0;fontSize=10;fontColor=#000000;fillColor=#fff2cc;strokeColor=#d6b656;" parent="1" source="7JX_YpENttwIk4AB1Mbf-114" target="7JX_YpENttwIk4AB1Mbf-107" edge="1">
          <mxGeometry relative="1" as="geometry" />
        </mxCell>
        <mxCell id="7JX_YpENttwIk4AB1Mbf-120" style="edgeStyle=orthogonalEdgeStyle;rounded=0;orthogonalLoop=1;jettySize=auto;html=1;fontSize=10;fontColor=#000000;fillColor=#fff2cc;strokeColor=#d6b656;" parent="1" source="7JX_YpENttwIk4AB1Mbf-114" target="7JX_YpENttwIk4AB1Mbf-108" edge="1">
          <mxGeometry relative="1" as="geometry" />
        </mxCell>
        <mxCell id="7JX_YpENttwIk4AB1Mbf-121" style="edgeStyle=orthogonalEdgeStyle;rounded=0;orthogonalLoop=1;jettySize=auto;html=1;fontSize=10;fontColor=#000000;fillColor=#fff2cc;strokeColor=#d6b656;" parent="1" source="7JX_YpENttwIk4AB1Mbf-114" target="7JX_YpENttwIk4AB1Mbf-109" edge="1">
          <mxGeometry relative="1" as="geometry">
            <Array as="points">
              <mxPoint x="-193.38" y="-1470" />
              <mxPoint x="-55.379999999999995" y="-1470" />
            </Array>
          </mxGeometry>
        </mxCell>
        <mxCell id="7JX_YpENttwIk4AB1Mbf-114" value="mydbcluster.dbcluster-&lt;b style=&quot;font-size: 10px;&quot;&gt;ro&lt;/b&gt;-id.region...." style="text;html=1;strokeColor=#d6b656;fillColor=#fff2cc;align=center;verticalAlign=middle;whiteSpace=wrap;rounded=0;fontSize=10;" parent="1" vertex="1">
          <mxGeometry x="-281.38" y="-1540" width="175" height="30" as="geometry" />
        </mxCell>
        <mxCell id="7JX_YpENttwIk4AB1Mbf-117" style="edgeStyle=orthogonalEdgeStyle;rounded=0;orthogonalLoop=1;jettySize=auto;html=1;exitX=0.5;exitY=1;exitDx=0;exitDy=0;fontColor=#000000;fillColor=#f8cecc;strokeColor=#b85450;" parent="1" source="7JX_YpENttwIk4AB1Mbf-115" target="7JX_YpENttwIk4AB1Mbf-106" edge="1">
          <mxGeometry relative="1" as="geometry" />
        </mxCell>
        <mxCell id="7JX_YpENttwIk4AB1Mbf-115" value="&lt;font style=&quot;font-size: 10px;&quot;&gt;mydbcluster.dbcluster-id.region....&lt;/font&gt;" style="text;html=1;strokeColor=#b85450;fillColor=#f8cecc;align=center;verticalAlign=middle;whiteSpace=wrap;rounded=0;" parent="1" vertex="1">
          <mxGeometry x="-500.38" y="-1550" width="200" height="30" as="geometry" />
        </mxCell>
        <mxCell id="7JX_YpENttwIk4AB1Mbf-125" style="edgeStyle=orthogonalEdgeStyle;rounded=0;orthogonalLoop=1;jettySize=auto;html=1;fontSize=10;fontColor=#000000;fillColor=#e1d5e7;strokeColor=#9673a6;" parent="1" source="7JX_YpENttwIk4AB1Mbf-122" target="7JX_YpENttwIk4AB1Mbf-109" edge="1">
          <mxGeometry relative="1" as="geometry">
            <Array as="points">
              <mxPoint x="1.6200000000000045" y="-1411" />
            </Array>
          </mxGeometry>
        </mxCell>
        <mxCell id="7JX_YpENttwIk4AB1Mbf-122" value="mydbcluster.dbcluster-&lt;b&gt;custom&lt;/b&gt;-id.region...." style="text;html=1;strokeColor=#9673a6;fillColor=#e1d5e7;align=center;verticalAlign=middle;whiteSpace=wrap;rounded=0;fontSize=10;" parent="1" vertex="1">
          <mxGeometry x="-86.38" y="-1540" width="175" height="30" as="geometry" />
        </mxCell>
        <mxCell id="7JX_YpENttwIk4AB1Mbf-126" value="Aurora" style="sketch=0;points=[[0,0,0],[0.25,0,0],[0.5,0,0],[0.75,0,0],[1,0,0],[0,1,0],[0.25,1,0],[0.5,1,0],[0.75,1,0],[1,1,0],[0,0.25,0],[0,0.5,0],[0,0.75,0],[1,0.25,0],[1,0.5,0],[1,0.75,0]];outlineConnect=0;fontColor=#232F3E;gradientColor=#4D72F3;gradientDirection=north;fillColor=#3334B9;strokeColor=#ffffff;dashed=0;verticalLabelPosition=bottom;verticalAlign=top;align=center;html=1;fontSize=12;fontStyle=0;aspect=fixed;shape=mxgraph.aws4.resourceIcon;resIcon=mxgraph.aws4.aurora;" parent="1" vertex="1">
          <mxGeometry x="-564.38" y="-1441" width="54" height="54" as="geometry" />
        </mxCell>
        <mxCell id="7JX_YpENttwIk4AB1Mbf-127" value="Writer" style="sketch=0;outlineConnect=0;fontColor=#232F3E;gradientColor=none;fillColor=#2E27AD;strokeColor=none;dashed=0;verticalLabelPosition=bottom;verticalAlign=top;align=center;html=1;fontSize=12;fontStyle=0;aspect=fixed;pointerEvents=1;shape=mxgraph.aws4.aurora_instance;" parent="1" vertex="1">
          <mxGeometry x="692" y="473" width="48" height="48" as="geometry" />
        </mxCell>
        <mxCell id="7JX_YpENttwIk4AB1Mbf-128" value="Read Replica&lt;br&gt;Tier 0" style="sketch=0;outlineConnect=0;fontColor=#232F3E;gradientColor=none;fillColor=#2E27AD;strokeColor=none;dashed=0;verticalLabelPosition=bottom;verticalAlign=top;align=center;html=1;fontSize=12;fontStyle=0;aspect=fixed;pointerEvents=1;shape=mxgraph.aws4.aurora_instance;" parent="1" vertex="1">
          <mxGeometry x="812" y="470" width="48" height="48" as="geometry" />
        </mxCell>
        <mxCell id="7JX_YpENttwIk4AB1Mbf-129" value="Read Replica&lt;br&gt;Tier 1" style="sketch=0;outlineConnect=0;fontColor=#232F3E;gradientColor=none;fillColor=#2E27AD;strokeColor=none;dashed=0;verticalLabelPosition=bottom;verticalAlign=top;align=center;html=1;fontSize=12;fontStyle=0;aspect=fixed;pointerEvents=1;shape=mxgraph.aws4.aurora_instance;" parent="1" vertex="1">
          <mxGeometry x="932" y="470" width="48" height="48" as="geometry" />
        </mxCell>
        <mxCell id="7JX_YpENttwIk4AB1Mbf-130" value="Writer" style="sketch=0;outlineConnect=0;fontColor=#232F3E;gradientColor=none;fillColor=#2E27AD;strokeColor=none;dashed=0;verticalLabelPosition=bottom;verticalAlign=top;align=center;html=1;fontSize=12;fontStyle=0;aspect=fixed;pointerEvents=1;shape=mxgraph.aws4.aurora_instance;" parent="1" vertex="1">
          <mxGeometry x="1140" y="470" width="48" height="48" as="geometry" />
        </mxCell>
        <mxCell id="7JX_YpENttwIk4AB1Mbf-131" value="Read Replica&lt;br&gt;Tier 0" style="sketch=0;outlineConnect=0;fontColor=#232F3E;gradientColor=none;fillColor=#2E27AD;strokeColor=none;dashed=0;verticalLabelPosition=bottom;verticalAlign=top;align=center;html=1;fontSize=12;fontStyle=0;aspect=fixed;pointerEvents=1;shape=mxgraph.aws4.aurora_instance;" parent="1" vertex="1">
          <mxGeometry x="1260" y="470" width="48" height="48" as="geometry" />
        </mxCell>
        <mxCell id="7JX_YpENttwIk4AB1Mbf-132" value="Read Replica&lt;br&gt;Tier 1" style="sketch=0;outlineConnect=0;fontColor=#232F3E;gradientColor=none;fillColor=#2E27AD;strokeColor=none;dashed=0;verticalLabelPosition=bottom;verticalAlign=top;align=center;html=1;fontSize=12;fontStyle=0;aspect=fixed;pointerEvents=1;shape=mxgraph.aws4.aurora_instance;" parent="1" vertex="1">
          <mxGeometry x="1380" y="470" width="48" height="48" as="geometry" />
        </mxCell>
        <mxCell id="7JX_YpENttwIk4AB1Mbf-133" value="" style="shape=cross;whiteSpace=wrap;html=1;fontSize=10;fillColor=#f8cecc;rotation=45;strokeColor=#b85450;" parent="1" vertex="1">
          <mxGeometry x="1147.59" y="479.0499999999997" width="32.82" height="29.9" as="geometry" />
        </mxCell>
        <mxCell id="7JX_YpENttwIk4AB1Mbf-136" style="edgeStyle=orthogonalEdgeStyle;rounded=0;orthogonalLoop=1;jettySize=auto;html=1;fontSize=10;fontColor=#000000;" parent="1" source="7JX_YpENttwIk4AB1Mbf-135" target="7JX_YpENttwIk4AB1Mbf-127" edge="1">
          <mxGeometry relative="1" as="geometry" />
        </mxCell>
        <mxCell id="7JX_YpENttwIk4AB1Mbf-135" value="Client" style="sketch=0;outlineConnect=0;fontColor=#232F3E;gradientColor=none;strokeColor=#232F3E;fillColor=#ffffff;dashed=0;verticalLabelPosition=bottom;verticalAlign=top;align=center;html=1;fontSize=12;fontStyle=0;aspect=fixed;shape=mxgraph.aws4.resourceIcon;resIcon=mxgraph.aws4.client;" parent="1" vertex="1">
          <mxGeometry x="694" y="350" width="44" height="44" as="geometry" />
        </mxCell>
        <mxCell id="7JX_YpENttwIk4AB1Mbf-139" style="edgeStyle=orthogonalEdgeStyle;rounded=0;orthogonalLoop=1;jettySize=auto;html=1;fontSize=10;fontColor=#000000;" parent="1" source="7JX_YpENttwIk4AB1Mbf-138" target="7JX_YpENttwIk4AB1Mbf-130" edge="1">
          <mxGeometry relative="1" as="geometry" />
        </mxCell>
        <mxCell id="7JX_YpENttwIk4AB1Mbf-140" style="edgeStyle=orthogonalEdgeStyle;rounded=0;orthogonalLoop=1;jettySize=auto;html=1;fontSize=10;fontColor=#000000;dashed=1;" parent="1" source="7JX_YpENttwIk4AB1Mbf-138" target="7JX_YpENttwIk4AB1Mbf-131" edge="1">
          <mxGeometry relative="1" as="geometry" />
        </mxCell>
        <mxCell id="7JX_YpENttwIk4AB1Mbf-151" value="automatic failover&lt;br&gt;(DNS switch)" style="edgeLabel;html=1;align=center;verticalAlign=middle;resizable=0;points=[];fontSize=12;fontColor=#000000;" parent="7JX_YpENttwIk4AB1Mbf-140" vertex="1" connectable="0">
          <mxGeometry x="0.1918" y="2" relative="1" as="geometry">
            <mxPoint as="offset" />
          </mxGeometry>
        </mxCell>
        <mxCell id="7JX_YpENttwIk4AB1Mbf-138" value="Client" style="sketch=0;outlineConnect=0;fontColor=#232F3E;gradientColor=none;strokeColor=#232F3E;fillColor=#ffffff;dashed=0;verticalLabelPosition=bottom;verticalAlign=top;align=center;html=1;fontSize=12;fontStyle=0;aspect=fixed;shape=mxgraph.aws4.resourceIcon;resIcon=mxgraph.aws4.client;" parent="1" vertex="1">
          <mxGeometry x="1142" y="350" width="44" height="44" as="geometry" />
        </mxCell>
        <mxCell id="7JX_YpENttwIk4AB1Mbf-141" value="&lt;ul&gt;&lt;li&gt;Failover typically takes 30s&lt;/li&gt;&lt;/ul&gt;" style="text;html=1;strokeColor=none;fillColor=none;align=left;verticalAlign=middle;whiteSpace=wrap;rounded=0;fontSize=12;fontColor=#000000;" parent="1" vertex="1">
          <mxGeometry x="1330" y="370" width="212" height="30" as="geometry" />
        </mxCell>
        <mxCell id="7JX_YpENttwIk4AB1Mbf-142" value="us-east-1" style="points=[[0,0],[0.25,0],[0.5,0],[0.75,0],[1,0],[1,0.25],[1,0.5],[1,0.75],[1,1],[0.75,1],[0.5,1],[0.25,1],[0,1],[0,0.75],[0,0.5],[0,0.25]];outlineConnect=0;gradientColor=none;html=1;whiteSpace=wrap;fontSize=12;fontStyle=0;container=1;pointerEvents=0;collapsible=0;recursiveResize=0;shape=mxgraph.aws4.group;grIcon=mxgraph.aws4.group_region;strokeColor=#147EBA;fillColor=none;verticalAlign=top;align=left;spacingLeft=30;fontColor=#147EBA;dashed=1;" parent="1" vertex="1">
          <mxGeometry x="645" y="426" width="407" height="160" as="geometry" />
        </mxCell>
        <mxCell id="7JX_YpENttwIk4AB1Mbf-143" value="us-east-1" style="points=[[0,0],[0.25,0],[0.5,0],[0.75,0],[1,0],[1,0.25],[1,0.5],[1,0.75],[1,1],[0.75,1],[0.5,1],[0.25,1],[0,1],[0,0.75],[0,0.5],[0,0.25]];outlineConnect=0;gradientColor=none;html=1;whiteSpace=wrap;fontSize=12;fontStyle=0;container=1;pointerEvents=0;collapsible=0;recursiveResize=0;shape=mxgraph.aws4.group;grIcon=mxgraph.aws4.group_region;strokeColor=#147EBA;fillColor=none;verticalAlign=top;align=left;spacingLeft=30;fontColor=#147EBA;dashed=1;" parent="1" vertex="1">
          <mxGeometry x="1112" y="426" width="407" height="160" as="geometry" />
        </mxCell>
        <mxCell id="7JX_YpENttwIk4AB1Mbf-144" value="Writer" style="sketch=0;outlineConnect=0;fontColor=#232F3E;gradientColor=none;fillColor=#2E27AD;strokeColor=none;dashed=0;verticalLabelPosition=bottom;verticalAlign=top;align=center;html=1;fontSize=12;fontStyle=0;aspect=fixed;pointerEvents=1;shape=mxgraph.aws4.aurora_instance;" parent="1" vertex="1">
          <mxGeometry x="692" y="783" width="48" height="48" as="geometry" />
        </mxCell>
        <mxCell id="7JX_YpENttwIk4AB1Mbf-145" value="Read Replica&lt;br&gt;Tier 0" style="sketch=0;outlineConnect=0;fontColor=#232F3E;gradientColor=none;fillColor=#2E27AD;strokeColor=none;dashed=0;verticalLabelPosition=bottom;verticalAlign=top;align=center;html=1;fontSize=12;fontStyle=0;aspect=fixed;pointerEvents=1;shape=mxgraph.aws4.aurora_instance;" parent="1" vertex="1">
          <mxGeometry x="812" y="780" width="48" height="48" as="geometry" />
        </mxCell>
        <mxCell id="7JX_YpENttwIk4AB1Mbf-146" value="Read Replica&lt;br&gt;Tier 1" style="sketch=0;outlineConnect=0;fontColor=#232F3E;gradientColor=none;fillColor=#2E27AD;strokeColor=none;dashed=0;verticalLabelPosition=bottom;verticalAlign=top;align=center;html=1;fontSize=12;fontStyle=0;aspect=fixed;pointerEvents=1;shape=mxgraph.aws4.aurora_instance;" parent="1" vertex="1">
          <mxGeometry x="980" y="783" width="48" height="48" as="geometry" />
        </mxCell>
        <mxCell id="7JX_YpENttwIk4AB1Mbf-147" style="edgeStyle=orthogonalEdgeStyle;rounded=0;orthogonalLoop=1;jettySize=auto;html=1;fontSize=10;fontColor=#000000;" parent="1" source="7JX_YpENttwIk4AB1Mbf-148" target="7JX_YpENttwIk4AB1Mbf-144" edge="1">
          <mxGeometry relative="1" as="geometry" />
        </mxCell>
        <mxCell id="7JX_YpENttwIk4AB1Mbf-148" value="Client" style="sketch=0;outlineConnect=0;fontColor=#232F3E;gradientColor=none;strokeColor=#232F3E;fillColor=#ffffff;dashed=0;verticalLabelPosition=bottom;verticalAlign=top;align=center;html=1;fontSize=12;fontStyle=0;aspect=fixed;shape=mxgraph.aws4.resourceIcon;resIcon=mxgraph.aws4.client;" parent="1" vertex="1">
          <mxGeometry x="694" y="660" width="44" height="44" as="geometry" />
        </mxCell>
        <mxCell id="7JX_YpENttwIk4AB1Mbf-149" value="us-east-1" style="points=[[0,0],[0.25,0],[0.5,0],[0.75,0],[1,0],[1,0.25],[1,0.5],[1,0.75],[1,1],[0.75,1],[0.5,1],[0.25,1],[0,1],[0,0.75],[0,0.5],[0,0.25]];outlineConnect=0;gradientColor=none;html=1;whiteSpace=wrap;fontSize=12;fontStyle=0;container=1;pointerEvents=0;collapsible=0;recursiveResize=0;shape=mxgraph.aws4.group;grIcon=mxgraph.aws4.group_region;strokeColor=#147EBA;fillColor=none;verticalAlign=top;align=left;spacingLeft=30;fontColor=#147EBA;dashed=1;" parent="1" vertex="1">
          <mxGeometry x="645" y="736" width="249" height="160" as="geometry" />
        </mxCell>
        <mxCell id="7JX_YpENttwIk4AB1Mbf-150" value="us-east-2" style="points=[[0,0],[0.25,0],[0.5,0],[0.75,0],[1,0],[1,0.25],[1,0.5],[1,0.75],[1,1],[0.75,1],[0.5,1],[0.25,1],[0,1],[0,0.75],[0,0.5],[0,0.25]];outlineConnect=0;gradientColor=none;html=1;whiteSpace=wrap;fontSize=12;fontStyle=0;container=1;pointerEvents=0;collapsible=0;recursiveResize=0;shape=mxgraph.aws4.group;grIcon=mxgraph.aws4.group_region;strokeColor=#147EBA;fillColor=none;verticalAlign=top;align=left;spacingLeft=30;fontColor=#147EBA;dashed=1;" parent="1" vertex="1">
          <mxGeometry x="904.5" y="736" width="149.5" height="160" as="geometry" />
        </mxCell>
        <mxCell id="7JX_YpENttwIk4AB1Mbf-161" value="physical &lt;br&gt;replication" style="edgeStyle=orthogonalEdgeStyle;rounded=0;orthogonalLoop=1;jettySize=auto;html=1;fontSize=12;fontColor=#000000;fillColor=#f8cecc;strokeColor=#b85450;" parent="1" source="7JX_YpENttwIk4AB1Mbf-152" target="7JX_YpENttwIk4AB1Mbf-153" edge="1">
          <mxGeometry relative="1" as="geometry" />
        </mxCell>
        <mxCell id="7JX_YpENttwIk4AB1Mbf-162" style="edgeStyle=orthogonalEdgeStyle;rounded=0;orthogonalLoop=1;jettySize=auto;html=1;fontSize=12;fontColor=#000000;dashed=1;fillColor=#f8cecc;strokeColor=#b85450;" parent="1" source="7JX_YpENttwIk4AB1Mbf-152" target="7JX_YpENttwIk4AB1Mbf-154" edge="1">
          <mxGeometry relative="1" as="geometry">
            <Array as="points">
              <mxPoint x="1166" y="880" />
              <mxPoint x="1478" y="880" />
            </Array>
          </mxGeometry>
        </mxCell>
        <mxCell id="7JX_YpENttwIk4AB1Mbf-164" value="Binary replication" style="edgeLabel;html=1;align=center;verticalAlign=middle;resizable=0;points=[];fontSize=12;fontColor=#000000;" parent="7JX_YpENttwIk4AB1Mbf-162" vertex="1" connectable="0">
          <mxGeometry x="0.07" y="1" relative="1" as="geometry">
            <mxPoint as="offset" />
          </mxGeometry>
        </mxCell>
        <mxCell id="7JX_YpENttwIk4AB1Mbf-152" value="Writer" style="sketch=0;outlineConnect=0;fontColor=#232F3E;gradientColor=none;fillColor=#2E27AD;strokeColor=none;dashed=0;verticalLabelPosition=bottom;verticalAlign=top;align=center;html=1;fontSize=12;fontStyle=0;aspect=fixed;pointerEvents=1;shape=mxgraph.aws4.aurora_instance;" parent="1" vertex="1">
          <mxGeometry x="1142" y="790" width="48" height="48" as="geometry" />
        </mxCell>
        <mxCell id="7JX_YpENttwIk4AB1Mbf-154" value="Read Replica&lt;br&gt;Tier 1" style="sketch=0;outlineConnect=0;fontColor=#232F3E;gradientColor=none;fillColor=#2E27AD;strokeColor=none;dashed=0;verticalLabelPosition=bottom;verticalAlign=top;align=center;html=1;fontSize=12;fontStyle=0;aspect=fixed;pointerEvents=1;shape=mxgraph.aws4.aurora_instance;" parent="1" vertex="1">
          <mxGeometry x="1454" y="783" width="48" height="48" as="geometry" />
        </mxCell>
        <mxCell id="7JX_YpENttwIk4AB1Mbf-155" style="edgeStyle=orthogonalEdgeStyle;rounded=0;orthogonalLoop=1;jettySize=auto;html=1;fontSize=10;fontColor=#000000;" parent="1" target="7JX_YpENttwIk4AB1Mbf-152" edge="1">
          <mxGeometry relative="1" as="geometry">
            <mxPoint x="1190" y="704" as="sourcePoint" />
          </mxGeometry>
        </mxCell>
        <mxCell id="7JX_YpENttwIk4AB1Mbf-156" value="us-east-1" style="points=[[0,0],[0.25,0],[0.5,0],[0.75,0],[1,0],[1,0.25],[1,0.5],[1,0.75],[1,1],[0.75,1],[0.5,1],[0.25,1],[0,1],[0,0.75],[0,0.5],[0,0.25]];outlineConnect=0;gradientColor=none;html=1;whiteSpace=wrap;fontSize=12;fontStyle=0;container=1;pointerEvents=0;collapsible=0;recursiveResize=0;shape=mxgraph.aws4.group;grIcon=mxgraph.aws4.group_region;strokeColor=#147EBA;fillColor=none;verticalAlign=top;align=left;spacingLeft=30;fontColor=#147EBA;dashed=1;" parent="1" vertex="1">
          <mxGeometry x="1119" y="736" width="249" height="160" as="geometry" />
        </mxCell>
        <mxCell id="7JX_YpENttwIk4AB1Mbf-153" value="Read Replica&lt;br&gt;Tier 0" style="sketch=0;outlineConnect=0;fontColor=#232F3E;gradientColor=none;fillColor=#2E27AD;strokeColor=none;dashed=0;verticalLabelPosition=bottom;verticalAlign=top;align=center;html=1;fontSize=12;fontStyle=0;aspect=fixed;pointerEvents=1;shape=mxgraph.aws4.aurora_instance;" parent="7JX_YpENttwIk4AB1Mbf-156" vertex="1">
          <mxGeometry x="203" y="54" width="41" height="41" as="geometry" />
        </mxCell>
        <mxCell id="7JX_YpENttwIk4AB1Mbf-157" value="us-east-2" style="points=[[0,0],[0.25,0],[0.5,0],[0.75,0],[1,0],[1,0.25],[1,0.5],[1,0.75],[1,1],[0.75,1],[0.5,1],[0.25,1],[0,1],[0,0.75],[0,0.5],[0,0.25]];outlineConnect=0;gradientColor=none;html=1;whiteSpace=wrap;fontSize=12;fontStyle=0;container=1;pointerEvents=0;collapsible=0;recursiveResize=0;shape=mxgraph.aws4.group;grIcon=mxgraph.aws4.group_region;strokeColor=#147EBA;fillColor=none;verticalAlign=top;align=left;spacingLeft=30;fontColor=#147EBA;dashed=1;" parent="1" vertex="1">
          <mxGeometry x="1378.5" y="736" width="149.5" height="160" as="geometry" />
        </mxCell>
        <mxCell id="7JX_YpENttwIk4AB1Mbf-159" value="Manual Failover" style="edgeStyle=orthogonalEdgeStyle;rounded=0;orthogonalLoop=1;jettySize=auto;html=1;dashed=1;fontSize=12;fontColor=#000000;" parent="1" source="7JX_YpENttwIk4AB1Mbf-158" target="7JX_YpENttwIk4AB1Mbf-154" edge="1">
          <mxGeometry relative="1" as="geometry" />
        </mxCell>
        <mxCell id="7JX_YpENttwIk4AB1Mbf-158" value="Client" style="sketch=0;outlineConnect=0;fontColor=#232F3E;gradientColor=none;strokeColor=#232F3E;fillColor=#ffffff;dashed=0;verticalLabelPosition=bottom;verticalAlign=top;align=center;html=1;fontSize=12;fontStyle=0;aspect=fixed;shape=mxgraph.aws4.resourceIcon;resIcon=mxgraph.aws4.client;" parent="1" vertex="1">
          <mxGeometry x="1167" y="660" width="44" height="44" as="geometry" />
        </mxCell>
        <mxCell id="7JX_YpENttwIk4AB1Mbf-160" value="&lt;ul&gt;&lt;li&gt;Not supported by Aurora on Postgresql, only on mySQL&lt;/li&gt;&lt;li&gt;up to five cross region read replicas&lt;/li&gt;&lt;li&gt;can have minutes of data loss cross region&lt;/li&gt;&lt;/ul&gt;" style="text;html=1;strokeColor=none;fillColor=none;align=left;verticalAlign=middle;whiteSpace=wrap;rounded=0;fontSize=12;fontColor=#000000;" parent="1" vertex="1">
          <mxGeometry x="1542" y="735" width="314" height="70" as="geometry" />
        </mxCell>
        <mxCell id="7JX_YpENttwIk4AB1Mbf-165" value="" style="shape=cross;whiteSpace=wrap;html=1;fontSize=10;fillColor=#f8cecc;rotation=45;strokeColor=#b85450;" parent="1" vertex="1">
          <mxGeometry x="1149.1799999999998" y="798.0999999999999" width="32.82" height="29.9" as="geometry" />
        </mxCell>
        <mxCell id="7JX_YpENttwIk4AB1Mbf-196" style="edgeStyle=orthogonalEdgeStyle;rounded=0;orthogonalLoop=1;jettySize=auto;html=1;entryX=0.25;entryY=0;entryDx=0;entryDy=0;fontSize=12;fontColor=#000000;" parent="1" source="7JX_YpENttwIk4AB1Mbf-178" target="7JX_YpENttwIk4AB1Mbf-193" edge="1">
          <mxGeometry relative="1" as="geometry" />
        </mxCell>
        <mxCell id="7JX_YpENttwIk4AB1Mbf-178" value="Writer" style="sketch=0;outlineConnect=0;fontColor=#232F3E;gradientColor=none;fillColor=#2E27AD;strokeColor=none;dashed=0;verticalLabelPosition=bottom;verticalAlign=top;align=center;html=1;fontSize=12;fontStyle=0;aspect=fixed;pointerEvents=1;shape=mxgraph.aws4.aurora_instance;" parent="1" vertex="1">
          <mxGeometry x="687.5" y="1123" width="48" height="48" as="geometry" />
        </mxCell>
        <mxCell id="7JX_YpENttwIk4AB1Mbf-197" style="edgeStyle=orthogonalEdgeStyle;rounded=0;orthogonalLoop=1;jettySize=auto;html=1;entryX=0.75;entryY=0;entryDx=0;entryDy=0;fontSize=12;fontColor=#000000;" parent="1" source="7JX_YpENttwIk4AB1Mbf-179" target="7JX_YpENttwIk4AB1Mbf-193" edge="1">
          <mxGeometry relative="1" as="geometry" />
        </mxCell>
        <mxCell id="7JX_YpENttwIk4AB1Mbf-179" value="Read Replica&lt;br&gt;Tier 0" style="sketch=0;outlineConnect=0;fontColor=#232F3E;gradientColor=none;fillColor=#2E27AD;strokeColor=none;dashed=0;verticalLabelPosition=bottom;verticalAlign=top;align=center;html=1;fontSize=12;fontStyle=0;aspect=fixed;pointerEvents=1;shape=mxgraph.aws4.aurora_instance;" parent="1" vertex="1">
          <mxGeometry x="795.5" y="1120" width="48" height="48" as="geometry" />
        </mxCell>
        <mxCell id="7JX_YpENttwIk4AB1Mbf-181" style="edgeStyle=orthogonalEdgeStyle;rounded=0;orthogonalLoop=1;jettySize=auto;html=1;fontSize=10;fontColor=#000000;" parent="1" source="7JX_YpENttwIk4AB1Mbf-182" target="7JX_YpENttwIk4AB1Mbf-178" edge="1">
          <mxGeometry relative="1" as="geometry" />
        </mxCell>
        <mxCell id="7JX_YpENttwIk4AB1Mbf-182" value="Client" style="sketch=0;outlineConnect=0;fontColor=#232F3E;gradientColor=none;strokeColor=#232F3E;fillColor=#ffffff;dashed=0;verticalLabelPosition=bottom;verticalAlign=top;align=center;html=1;fontSize=12;fontStyle=0;aspect=fixed;shape=mxgraph.aws4.resourceIcon;resIcon=mxgraph.aws4.client;" parent="1" vertex="1">
          <mxGeometry x="689.5" y="1000" width="44" height="44" as="geometry" />
        </mxCell>
        <mxCell id="7JX_YpENttwIk4AB1Mbf-183" value="us-east-1" style="points=[[0,0],[0.25,0],[0.5,0],[0.75,0],[1,0],[1,0.25],[1,0.5],[1,0.75],[1,1],[0.75,1],[0.5,1],[0.25,1],[0,1],[0,0.75],[0,0.5],[0,0.25]];outlineConnect=0;gradientColor=none;html=1;whiteSpace=wrap;fontSize=12;fontStyle=0;container=1;pointerEvents=0;collapsible=0;recursiveResize=0;shape=mxgraph.aws4.group;grIcon=mxgraph.aws4.group_region;strokeColor=#147EBA;fillColor=none;verticalAlign=top;align=left;spacingLeft=30;fontColor=#147EBA;dashed=1;" parent="1" vertex="1">
          <mxGeometry x="642.5" y="1076" width="249" height="244" as="geometry" />
        </mxCell>
        <mxCell id="7JX_YpENttwIk4AB1Mbf-193" value="Storage" style="rounded=1;whiteSpace=wrap;html=1;fontSize=12;fontColor=#000000;fillColor=none;" parent="7JX_YpENttwIk4AB1Mbf-183" vertex="1">
          <mxGeometry x="15" y="144" width="215" height="60" as="geometry" />
        </mxCell>
        <mxCell id="7JX_YpENttwIk4AB1Mbf-198" style="edgeStyle=orthogonalEdgeStyle;rounded=0;orthogonalLoop=1;jettySize=auto;html=1;entryX=0.25;entryY=0;entryDx=0;entryDy=0;fontSize=12;fontColor=#000000;" parent="1" source="7JX_YpENttwIk4AB1Mbf-185" target="7JX_YpENttwIk4AB1Mbf-194" edge="1">
          <mxGeometry relative="1" as="geometry" />
        </mxCell>
        <mxCell id="7JX_YpENttwIk4AB1Mbf-185" value="Reader" style="sketch=0;outlineConnect=0;fontColor=#232F3E;gradientColor=none;fillColor=#2E27AD;strokeColor=none;dashed=0;verticalLabelPosition=bottom;verticalAlign=top;align=center;html=1;fontSize=12;fontStyle=0;aspect=fixed;pointerEvents=1;shape=mxgraph.aws4.aurora_instance;" parent="1" vertex="1">
          <mxGeometry x="1163.5" y="1123" width="48" height="48" as="geometry" />
        </mxCell>
        <mxCell id="7JX_YpENttwIk4AB1Mbf-199" style="edgeStyle=orthogonalEdgeStyle;rounded=0;orthogonalLoop=1;jettySize=auto;html=1;entryX=0.75;entryY=0;entryDx=0;entryDy=0;fontSize=12;fontColor=#000000;" parent="1" source="7JX_YpENttwIk4AB1Mbf-186" target="7JX_YpENttwIk4AB1Mbf-194" edge="1">
          <mxGeometry relative="1" as="geometry" />
        </mxCell>
        <mxCell id="7JX_YpENttwIk4AB1Mbf-186" value="Reader" style="sketch=0;outlineConnect=0;fontColor=#232F3E;gradientColor=none;fillColor=#2E27AD;strokeColor=none;dashed=0;verticalLabelPosition=bottom;verticalAlign=top;align=center;html=1;fontSize=12;fontStyle=0;aspect=fixed;pointerEvents=1;shape=mxgraph.aws4.aurora_instance;" parent="1" vertex="1">
          <mxGeometry x="1271.5" y="1120" width="48" height="48" as="geometry" />
        </mxCell>
        <mxCell id="7JX_YpENttwIk4AB1Mbf-190" value="us-east-2" style="points=[[0,0],[0.25,0],[0.5,0],[0.75,0],[1,0],[1,0.25],[1,0.5],[1,0.75],[1,1],[0.75,1],[0.5,1],[0.25,1],[0,1],[0,0.75],[0,0.5],[0,0.25]];outlineConnect=0;gradientColor=none;html=1;whiteSpace=wrap;fontSize=12;fontStyle=0;container=1;pointerEvents=0;collapsible=0;recursiveResize=0;shape=mxgraph.aws4.group;grIcon=mxgraph.aws4.group_region;strokeColor=#147EBA;fillColor=none;verticalAlign=top;align=left;spacingLeft=30;fontColor=#147EBA;dashed=1;" parent="1" vertex="1">
          <mxGeometry x="1111.5" y="1076" width="249" height="244" as="geometry" />
        </mxCell>
        <mxCell id="7JX_YpENttwIk4AB1Mbf-194" value="Storage" style="rounded=1;whiteSpace=wrap;html=1;fontSize=12;fontColor=#000000;fillColor=none;" parent="7JX_YpENttwIk4AB1Mbf-190" vertex="1">
          <mxGeometry x="22" y="144" width="215" height="60" as="geometry" />
        </mxCell>
        <mxCell id="7JX_YpENttwIk4AB1Mbf-195" style="edgeStyle=orthogonalEdgeStyle;rounded=0;orthogonalLoop=1;jettySize=auto;html=1;entryX=0;entryY=0.5;entryDx=0;entryDy=0;fontSize=12;fontColor=#000000;" parent="1" source="7JX_YpENttwIk4AB1Mbf-193" target="7JX_YpENttwIk4AB1Mbf-194" edge="1">
          <mxGeometry relative="1" as="geometry" />
        </mxCell>
        <mxCell id="7JX_YpENttwIk4AB1Mbf-200" value="&lt;ul&gt;&lt;li&gt;RPO : 1s, RTO &amp;lt; 1 min&lt;/li&gt;&lt;li&gt;Supported on Postgresql, on serverless as well&lt;/li&gt;&lt;/ul&gt;" style="text;html=1;strokeColor=none;fillColor=none;align=left;verticalAlign=middle;whiteSpace=wrap;rounded=0;fontSize=12;fontColor=#000000;" parent="1" vertex="1">
          <mxGeometry x="1397" y="1120" width="279" height="60" as="geometry" />
        </mxCell>
        <mxCell id="7JX_YpENttwIk4AB1Mbf-203" style="edgeStyle=orthogonalEdgeStyle;rounded=0;orthogonalLoop=1;jettySize=auto;html=1;entryX=0;entryY=0.5;entryDx=0;entryDy=0;entryPerimeter=0;fontSize=12;fontColor=#000000;" parent="1" source="7JX_YpENttwIk4AB1Mbf-201" target="7JX_YpENttwIk4AB1Mbf-202" edge="1">
          <mxGeometry relative="1" as="geometry" />
        </mxCell>
        <mxCell id="7JX_YpENttwIk4AB1Mbf-201" value="Aurora" style="sketch=0;points=[[0,0,0],[0.25,0,0],[0.5,0,0],[0.75,0,0],[1,0,0],[0,1,0],[0.25,1,0],[0.5,1,0],[0.75,1,0],[1,1,0],[0,0.25,0],[0,0.5,0],[0,0.75,0],[1,0.25,0],[1,0.5,0],[1,0.75,0]];outlineConnect=0;fontColor=#232F3E;gradientColor=#4D72F3;gradientDirection=north;fillColor=#3334B9;strokeColor=#ffffff;dashed=0;verticalLabelPosition=bottom;verticalAlign=top;align=center;html=1;fontSize=12;fontStyle=0;aspect=fixed;shape=mxgraph.aws4.resourceIcon;resIcon=mxgraph.aws4.aurora;" parent="1" vertex="1">
          <mxGeometry x="-704.26" y="2110" width="40" height="40" as="geometry" />
        </mxCell>
        <mxCell id="7JX_YpENttwIk4AB1Mbf-202" value="Lambda" style="sketch=0;points=[[0,0,0],[0.25,0,0],[0.5,0,0],[0.75,0,0],[1,0,0],[0,1,0],[0.25,1,0],[0.5,1,0],[0.75,1,0],[1,1,0],[0,0.25,0],[0,0.5,0],[0,0.75,0],[1,0.25,0],[1,0.5,0],[1,0.75,0]];outlineConnect=0;fontColor=#232F3E;gradientColor=#F78E04;gradientDirection=north;fillColor=#D05C17;strokeColor=#ffffff;dashed=0;verticalLabelPosition=bottom;verticalAlign=top;align=center;html=1;fontSize=12;fontStyle=0;aspect=fixed;shape=mxgraph.aws4.resourceIcon;resIcon=mxgraph.aws4.lambda;" parent="1" vertex="1">
          <mxGeometry x="-96.26" y="2108" width="44" height="44" as="geometry" />
        </mxCell>
        <mxCell id="7JX_YpENttwIk4AB1Mbf-204" value="&lt;font style=&quot;font-size: 14px;&quot;&gt;SELECT&lt;span style=&quot;color: rgb(22, 25, 31); text-align: start; background-color: rgb(249, 249, 249);&quot;&gt; &lt;/span&gt;&lt;span style=&quot;color: rgb(22, 25, 31); text-align: start;&quot; class=&quot;hljs-operator&quot;&gt;*&amp;nbsp;&lt;/span&gt;&lt;span style=&quot;text-align: start;&quot; class=&quot;hljs-keyword&quot;&gt;FROM&lt;/span&gt;&lt;/font&gt;&lt;span style=&quot;color: rgb(22, 25, 31); text-align: start; background-color: rgb(249, 249, 249); font-size: 14px;&quot;&gt;&lt;font style=&quot;font-size: 14px;&quot;&gt; &lt;br&gt;&lt;/font&gt;&lt;font style=&quot;font-size: 16px;&quot; face=&quot;Monaco, Menlo, Consolas, Courier Prime, Courier, Courier New, monospace&quot;&gt;aws_lambda.invoke(&lt;/font&gt;&lt;/span&gt;&lt;span style=&quot;color: rgb(11, 97, 37); font-family: Monaco, Menlo, Consolas, &amp;quot;Courier Prime&amp;quot;, Courier, &amp;quot;Courier New&amp;quot;, monospace; font-size: 16px; text-align: start;&quot; class=&quot;hljs-string&quot;&gt;&#39;aws_lambda_arn_1&#39;&lt;/span&gt;&lt;span style=&quot;color: rgb(22, 25, 31); font-family: Monaco, Menlo, Consolas, &amp;quot;Courier Prime&amp;quot;, Courier, &amp;quot;Courier New&amp;quot;, monospace; font-size: 16px; text-align: start; background-color: rgb(249, 249, 249);&quot;&gt;, &lt;/span&gt;&lt;span style=&quot;color: rgb(11, 97, 37); font-family: Monaco, Menlo, Consolas, &amp;quot;Courier Prime&amp;quot;, Courier, &amp;quot;Courier New&amp;quot;, monospace; font-size: 16px; text-align: start;&quot; class=&quot;hljs-string&quot;&gt;&#39;&lt;/span&gt;&lt;span style=&quot;color: rgb(22, 25, 31); font-family: Monaco, Menlo, Consolas, &amp;quot;Courier Prime&amp;quot;, Courier, &amp;quot;Courier New&amp;quot;, monospace; font-size: 16px; text-align: start;&quot;&gt;&lt;span style=&quot;color: rgb(11, 97, 37);&quot; class=&quot;hljs-string&quot;&gt;{&lt;/span&gt;&lt;/span&gt;&lt;span style=&quot;color: rgb(11, 97, 37); font-family: Monaco, Menlo, Consolas, &amp;quot;Courier Prime&amp;quot;, Courier, &amp;quot;Courier New&amp;quot;, monospace; font-size: 16px; text-align: start;&quot; class=&quot;hljs-string&quot;&gt;&quot;body&quot;: &quot;Hello from Postgres!&quot;}&#39;&lt;/span&gt;&lt;span style=&quot;font-family: Monaco, Menlo, Consolas, &amp;quot;Courier Prime&amp;quot;, Courier, &amp;quot;Courier New&amp;quot;, monospace; font-size: 16px; text-align: start;&quot; class=&quot;hljs-string&quot;&gt;::json&lt;/span&gt;&lt;font style=&quot;font-size: 16px;&quot;&gt;,&lt;/font&gt;&lt;span style=&quot;color: rgb(11, 97, 37); font-family: Monaco, Menlo, Consolas, &amp;quot;Courier Prime&amp;quot;, Courier, &amp;quot;Courier New&amp;quot;, monospace; font-size: 16px; text-align: start; background-color: rgb(249, 249, 249);&quot;&gt;&#39;RequestResponse&#39;&lt;/span&gt;&lt;span style=&quot;color: rgb(22, 25, 31); font-family: Monaco, Menlo, Consolas, &amp;quot;Courier Prime&amp;quot;, Courier, &amp;quot;Courier New&amp;quot;, monospace; font-size: 16px; text-align: start; background-color: rgb(249, 249, 249);&quot;&gt;);&lt;/span&gt;" style="text;html=1;strokeColor=none;fillColor=none;align=center;verticalAlign=middle;whiteSpace=wrap;rounded=0;fontSize=12;fontColor=#000000;" parent="1" vertex="1">
          <mxGeometry x="-629.01" y="2028" width="500" height="80" as="geometry" />
        </mxCell>
        <mxCell id="7JX_YpENttwIk4AB1Mbf-207" value="import / export" style="edgeStyle=orthogonalEdgeStyle;rounded=0;orthogonalLoop=1;jettySize=auto;html=1;entryX=0;entryY=0.5;entryDx=0;entryDy=0;entryPerimeter=0;fontFamily=Helvetica;fontSize=14;fontColor=#000000;" parent="1" source="7JX_YpENttwIk4AB1Mbf-205" target="7JX_YpENttwIk4AB1Mbf-206" edge="1">
          <mxGeometry relative="1" as="geometry" />
        </mxCell>
        <mxCell id="7JX_YpENttwIk4AB1Mbf-205" value="Aurora" style="sketch=0;points=[[0,0,0],[0.25,0,0],[0.5,0,0],[0.75,0,0],[1,0,0],[0,1,0],[0.25,1,0],[0.5,1,0],[0.75,1,0],[1,1,0],[0,0.25,0],[0,0.5,0],[0,0.75,0],[1,0.25,0],[1,0.5,0],[1,0.75,0]];outlineConnect=0;fontColor=#232F3E;gradientColor=#4D72F3;gradientDirection=north;fillColor=#3334B9;strokeColor=#ffffff;dashed=0;verticalLabelPosition=bottom;verticalAlign=top;align=center;html=1;fontSize=12;fontStyle=0;aspect=fixed;shape=mxgraph.aws4.resourceIcon;resIcon=mxgraph.aws4.aurora;" parent="1" vertex="1">
          <mxGeometry x="-704.26" y="2312" width="40" height="40" as="geometry" />
        </mxCell>
        <mxCell id="7JX_YpENttwIk4AB1Mbf-206" value="" style="sketch=0;points=[[0,0,0],[0.25,0,0],[0.5,0,0],[0.75,0,0],[1,0,0],[0,1,0],[0.25,1,0],[0.5,1,0],[0.75,1,0],[1,1,0],[0,0.25,0],[0,0.5,0],[0,0.75,0],[1,0.25,0],[1,0.5,0],[1,0.75,0]];outlineConnect=0;fontColor=#232F3E;gradientColor=#60A337;gradientDirection=north;fillColor=#277116;strokeColor=#ffffff;dashed=0;verticalLabelPosition=bottom;verticalAlign=top;align=center;html=1;fontSize=12;fontStyle=0;aspect=fixed;shape=mxgraph.aws4.resourceIcon;resIcon=mxgraph.aws4.s3;fontFamily=Helvetica;" parent="1" vertex="1">
          <mxGeometry x="-344.26" y="2308" width="48" height="48" as="geometry" />
        </mxCell>
        <mxCell id="7JX_YpENttwIk4AB1Mbf-208" value="&lt;ul style=&quot;line-height: 10%;&quot;&gt;&lt;li&gt;&lt;pre style=&quot;line-height: 10%;&quot; class=&quot;programlisting&quot;&gt;&lt;code tabindex=&quot;0&quot; class=&quot;nohighlight hljs&quot;&gt;&lt;font face=&quot;Helvetica&quot;&gt;install aws_s3 extension&lt;/font&gt;&lt;/code&gt;&lt;/pre&gt;&lt;/li&gt;&lt;li&gt;&lt;pre style=&quot;line-height: 10%;&quot; class=&quot;programlisting&quot;&gt;&lt;code tabindex=&quot;0&quot; class=&quot;nohighlight hljs&quot;&gt;&lt;font face=&quot;Helvetica&quot;&gt;configure IAM role&lt;/font&gt;&lt;/code&gt;&lt;/pre&gt;&lt;/li&gt;&lt;li&gt;&lt;pre style=&quot;line-height: 10%;&quot; class=&quot;programlisting&quot;&gt;&lt;code tabindex=&quot;0&quot; class=&quot;nohighlight hljs&quot;&gt;&lt;pre style=&quot;line-height: 10%;&quot; class=&quot;programlisting&quot;&gt;&lt;code tabindex=&quot;0&quot; class=&quot;nohighlight hljs&quot;&gt;&lt;font face=&quot;Helvetica&quot;&gt;import : aws_s3.table_import_from_s3&lt;/font&gt;&lt;/code&gt;&lt;/pre&gt;&lt;/code&gt;&lt;/pre&gt;&lt;/li&gt;&lt;li&gt;&lt;pre style=&quot;line-height: 10%;&quot; class=&quot;programlisting&quot;&gt;&lt;code tabindex=&quot;0&quot; class=&quot;nohighlight hljs&quot;&gt;&lt;font face=&quot;Helvetica&quot;&gt;export : &lt;/font&gt;&lt;/code&gt;&lt;font face=&quot;Helvetica&quot;&gt;aws_s3.query_export_to_s3&lt;/font&gt;&lt;/pre&gt;&lt;/li&gt;&lt;/ul&gt;" style="text;html=1;strokeColor=none;fillColor=none;align=left;verticalAlign=middle;whiteSpace=wrap;rounded=0;fontSize=12;fontFamily=Helvetica;fontColor=#000000;" parent="1" vertex="1">
          <mxGeometry x="-637.01" y="2356" width="272.75" height="70" as="geometry" />
        </mxCell>
        <mxCell id="7JX_YpENttwIk4AB1Mbf-209" value="RDS Service" style="sketch=0;points=[[0,0,0],[0.25,0,0],[0.5,0,0],[0.75,0,0],[1,0,0],[0,1,0],[0.25,1,0],[0.5,1,0],[0.75,1,0],[1,1,0],[0,0.25,0],[0,0.5,0],[0,0.75,0],[1,0.25,0],[1,0.5,0],[1,0.75,0]];outlineConnect=0;fontColor=#232F3E;gradientColor=#4D72F3;gradientDirection=north;fillColor=#3334B9;strokeColor=#ffffff;dashed=0;verticalLabelPosition=bottom;verticalAlign=top;align=center;html=1;fontSize=12;fontStyle=0;aspect=fixed;shape=mxgraph.aws4.resourceIcon;resIcon=mxgraph.aws4.aurora;" parent="1" vertex="1">
          <mxGeometry x="1097" y="-2071" width="40" height="40" as="geometry" />
        </mxCell>
        <mxCell id="7JX_YpENttwIk4AB1Mbf-210" value="instance" style="sketch=0;outlineConnect=0;fontColor=#232F3E;gradientColor=none;fillColor=#2E27AD;strokeColor=none;dashed=0;verticalLabelPosition=bottom;verticalAlign=top;align=center;html=1;fontSize=12;fontStyle=0;aspect=fixed;pointerEvents=1;shape=mxgraph.aws4.aurora_instance;fontFamily=Helvetica;" parent="1" vertex="1">
          <mxGeometry x="1095" y="-1961" width="42" height="42" as="geometry" />
        </mxCell>
        <mxCell id="7JX_YpENttwIk4AB1Mbf-212" value="2. Get Auth Token&lt;br&gt;Role must have permission &lt;br&gt;to get token of user" style="edgeStyle=orthogonalEdgeStyle;rounded=0;orthogonalLoop=1;jettySize=auto;html=1;entryX=0;entryY=0.5;entryDx=0;entryDy=0;entryPerimeter=0;fontFamily=Helvetica;fontSize=12;fontColor=#000000;" parent="1" source="7JX_YpENttwIk4AB1Mbf-211" target="7JX_YpENttwIk4AB1Mbf-209" edge="1">
          <mxGeometry relative="1" as="geometry" />
        </mxCell>
        <mxCell id="7JX_YpENttwIk4AB1Mbf-214" style="edgeStyle=orthogonalEdgeStyle;rounded=0;orthogonalLoop=1;jettySize=auto;html=1;fontFamily=Helvetica;fontSize=12;fontColor=#000000;" parent="1" source="7JX_YpENttwIk4AB1Mbf-211" target="7JX_YpENttwIk4AB1Mbf-210" edge="1">
          <mxGeometry relative="1" as="geometry">
            <Array as="points">
              <mxPoint x="894.5" y="-1940" />
            </Array>
          </mxGeometry>
        </mxCell>
        <mxCell id="7JX_YpENttwIk4AB1Mbf-215" value="2. Pass Auth Token of specified user" style="edgeLabel;html=1;align=center;verticalAlign=middle;resizable=0;points=[];fontSize=12;fontFamily=Helvetica;fontColor=#000000;" parent="7JX_YpENttwIk4AB1Mbf-214" vertex="1" connectable="0">
          <mxGeometry x="0.058" y="2" relative="1" as="geometry">
            <mxPoint as="offset" />
          </mxGeometry>
        </mxCell>
        <mxCell id="7JX_YpENttwIk4AB1Mbf-211" value="EC2" style="sketch=0;points=[[0,0,0],[0.25,0,0],[0.5,0,0],[0.75,0,0],[1,0,0],[0,1,0],[0.25,1,0],[0.5,1,0],[0.75,1,0],[1,1,0],[0,0.25,0],[0,0.5,0],[0,0.75,0],[1,0.25,0],[1,0.5,0],[1,0.75,0]];outlineConnect=0;fontColor=#232F3E;gradientColor=#F78E04;gradientDirection=north;fillColor=#D05C17;strokeColor=#ffffff;dashed=0;verticalLabelPosition=bottom;verticalAlign=top;align=center;html=1;fontSize=12;fontStyle=0;aspect=fixed;shape=mxgraph.aws4.resourceIcon;resIcon=mxgraph.aws4.ec2;fontFamily=Helvetica;" parent="1" vertex="1">
          <mxGeometry x="873.5" y="-2071" width="40" height="40" as="geometry" />
        </mxCell>
        <mxCell id="7JX_YpENttwIk4AB1Mbf-213" value="" style="sketch=0;outlineConnect=0;fontColor=#232F3E;gradientColor=none;fillColor=#BF0816;strokeColor=none;dashed=0;verticalLabelPosition=bottom;verticalAlign=top;align=center;html=1;fontSize=12;fontStyle=0;aspect=fixed;pointerEvents=1;shape=mxgraph.aws4.role;fontFamily=Helvetica;" parent="1" vertex="1">
          <mxGeometry x="904.5" y="-2101" width="42" height="23.69" as="geometry" />
        </mxCell>
        <mxCell id="7JX_YpENttwIk4AB1Mbf-216" value="&lt;ul&gt;&lt;li&gt;Connect without a password&lt;/li&gt;&lt;li&gt;Needs to retrieve an Auth Token (15 minutes expiration)&lt;/li&gt;&lt;li&gt;&amp;lt; 200 connections per second&lt;/li&gt;&lt;li&gt;can still have users with passwords&lt;/li&gt;&lt;li&gt;300 Mb extra on DB to use it&lt;/li&gt;&lt;/ul&gt;" style="text;html=1;strokeColor=none;fillColor=none;align=left;verticalAlign=middle;whiteSpace=wrap;rounded=0;fontSize=12;fontFamily=Helvetica;fontColor=#000000;" parent="1" vertex="1">
          <mxGeometry x="1310" y="-2050" width="366" height="80" as="geometry" />
        </mxCell>
        <mxCell id="7JX_YpENttwIk4AB1Mbf-218" value="AZ 1" style="fillColor=none;strokeColor=#147EBA;dashed=1;verticalAlign=top;fontStyle=0;fontColor=#147EBA;fontFamily=Helvetica;fontSize=12;" parent="1" vertex="1">
          <mxGeometry x="-476.38" y="-1970" width="160" height="220" as="geometry" />
        </mxCell>
        <mxCell id="7JX_YpENttwIk4AB1Mbf-221" value="Volume" style="sketch=0;outlineConnect=0;fontColor=#232F3E;gradientColor=none;fillColor=#3F8624;strokeColor=none;dashed=0;verticalLabelPosition=bottom;verticalAlign=top;align=center;html=1;fontSize=12;fontStyle=0;aspect=fixed;pointerEvents=1;shape=mxgraph.aws4.volume;fontFamily=Helvetica;" parent="1" vertex="1">
          <mxGeometry x="-452.38" y="-1826.32" width="40" height="50.32" as="geometry" />
        </mxCell>
        <mxCell id="7JX_YpENttwIk4AB1Mbf-236" style="edgeStyle=orthogonalEdgeStyle;rounded=0;orthogonalLoop=1;jettySize=auto;html=1;fontFamily=Helvetica;fontSize=12;fontColor=#000000;startArrow=none;startFill=0;" parent="1" source="7JX_YpENttwIk4AB1Mbf-224" target="7JX_YpENttwIk4AB1Mbf-230" edge="1">
          <mxGeometry relative="1" as="geometry" />
        </mxCell>
        <mxCell id="7JX_YpENttwIk4AB1Mbf-237" style="edgeStyle=orthogonalEdgeStyle;rounded=0;orthogonalLoop=1;jettySize=auto;html=1;fontFamily=Helvetica;fontSize=12;fontColor=#000000;startArrow=none;startFill=0;" parent="1" source="7JX_YpENttwIk4AB1Mbf-224" target="7JX_YpENttwIk4AB1Mbf-221" edge="1">
          <mxGeometry relative="1" as="geometry" />
        </mxCell>
        <mxCell id="7JX_YpENttwIk4AB1Mbf-244" style="edgeStyle=orthogonalEdgeStyle;rounded=0;orthogonalLoop=1;jettySize=auto;html=1;fontFamily=Helvetica;fontSize=12;fontColor=#000000;startArrow=none;startFill=0;" parent="1" edge="1">
          <mxGeometry relative="1" as="geometry">
            <mxPoint x="-397.38" y="-1886" as="sourcePoint" />
            <mxPoint x="-178.38" y="-1829.991343325712" as="targetPoint" />
            <Array as="points">
              <mxPoint x="-397.38" y="-1854" />
              <mxPoint x="-178.38" y="-1854" />
            </Array>
          </mxGeometry>
        </mxCell>
        <mxCell id="7JX_YpENttwIk4AB1Mbf-245" style="edgeStyle=orthogonalEdgeStyle;rounded=0;orthogonalLoop=1;jettySize=auto;html=1;fontFamily=Helvetica;fontSize=12;fontColor=#000000;startArrow=none;startFill=0;" parent="1" edge="1">
          <mxGeometry relative="1" as="geometry">
            <mxPoint x="-397.38" y="-1886" as="sourcePoint" />
            <mxPoint x="-239.38" y="-1829.991343325712" as="targetPoint" />
            <Array as="points">
              <mxPoint x="-397.38" y="-1854" />
              <mxPoint x="-239.38" y="-1854" />
            </Array>
          </mxGeometry>
        </mxCell>
        <mxCell id="7JX_YpENttwIk4AB1Mbf-250" style="edgeStyle=orthogonalEdgeStyle;rounded=0;orthogonalLoop=1;jettySize=auto;html=1;fontFamily=Helvetica;fontSize=12;fontColor=#000000;startArrow=none;startFill=0;" parent="1" edge="1">
          <mxGeometry relative="1" as="geometry">
            <mxPoint x="-397.38" y="-1886" as="sourcePoint" />
            <mxPoint x="-44.379999999999995" y="-1829.991343325712" as="targetPoint" />
            <Array as="points">
              <mxPoint x="-397.38" y="-1854" />
              <mxPoint x="-44.379999999999995" y="-1854" />
            </Array>
          </mxGeometry>
        </mxCell>
        <mxCell id="7JX_YpENttwIk4AB1Mbf-251" style="edgeStyle=orthogonalEdgeStyle;rounded=0;orthogonalLoop=1;jettySize=auto;html=1;fontFamily=Helvetica;fontSize=12;fontColor=#000000;startArrow=none;startFill=0;" parent="1" edge="1">
          <mxGeometry relative="1" as="geometry">
            <mxPoint x="-397.38" y="-1886" as="sourcePoint" />
            <mxPoint x="16.620000000000005" y="-1829.991343325712" as="targetPoint" />
            <Array as="points">
              <mxPoint x="-397.38" y="-1854" />
              <mxPoint x="16.620000000000005" y="-1854" />
            </Array>
          </mxGeometry>
        </mxCell>
        <mxCell id="7JX_YpENttwIk4AB1Mbf-224" value="Aurora" style="sketch=0;points=[[0,0,0],[0.25,0,0],[0.5,0,0],[0.75,0,0],[1,0,0],[0,1,0],[0.25,1,0],[0.5,1,0],[0.75,1,0],[1,1,0],[0,0.25,0],[0,0.5,0],[0,0.75,0],[1,0.25,0],[1,0.5,0],[1,0.75,0]];outlineConnect=0;fontColor=#232F3E;gradientColor=#4D72F3;gradientDirection=north;fillColor=#3334B9;strokeColor=#ffffff;dashed=0;verticalLabelPosition=bottom;verticalAlign=top;align=center;html=1;fontSize=12;fontStyle=0;aspect=fixed;shape=mxgraph.aws4.resourceIcon;resIcon=mxgraph.aws4.aurora;" parent="1" vertex="1">
          <mxGeometry x="-416.38" y="-1920" width="38" height="38" as="geometry" />
        </mxCell>
        <mxCell id="7JX_YpENttwIk4AB1Mbf-230" value="Volume" style="sketch=0;outlineConnect=0;fontColor=#232F3E;gradientColor=none;fillColor=#3F8624;strokeColor=none;dashed=0;verticalLabelPosition=bottom;verticalAlign=top;align=center;html=1;fontSize=12;fontStyle=0;aspect=fixed;pointerEvents=1;shape=mxgraph.aws4.volume;fontFamily=Helvetica;" parent="1" vertex="1">
          <mxGeometry x="-391.38" y="-1826.32" width="40" height="50.32" as="geometry" />
        </mxCell>
        <mxCell id="7JX_YpENttwIk4AB1Mbf-238" value="AZ 2" style="fillColor=none;strokeColor=#147EBA;dashed=1;verticalAlign=top;fontStyle=0;fontColor=#147EBA;fontFamily=Helvetica;fontSize=12;" parent="1" vertex="1">
          <mxGeometry x="-283.38" y="-1970" width="160" height="220" as="geometry" />
        </mxCell>
        <mxCell id="7JX_YpENttwIk4AB1Mbf-254" style="edgeStyle=orthogonalEdgeStyle;rounded=0;orthogonalLoop=1;jettySize=auto;html=1;entryX=0.5;entryY=1;entryDx=0;entryDy=0;entryPerimeter=0;fontFamily=Helvetica;fontSize=12;fontColor=#000000;startArrow=none;startFill=0;fillColor=#f8cecc;strokeColor=#b85450;" parent="1" source="7JX_YpENttwIk4AB1Mbf-239" target="7JX_YpENttwIk4AB1Mbf-242" edge="1">
          <mxGeometry relative="1" as="geometry">
            <Array as="points">
              <mxPoint x="-204.38" y="-1801" />
            </Array>
          </mxGeometry>
        </mxCell>
        <mxCell id="7JX_YpENttwIk4AB1Mbf-239" value="Volume" style="sketch=0;outlineConnect=0;fontColor=#232F3E;gradientColor=none;fillColor=#3F8624;strokeColor=none;dashed=0;verticalLabelPosition=bottom;verticalAlign=top;align=center;html=1;fontSize=12;fontStyle=0;aspect=fixed;pointerEvents=1;shape=mxgraph.aws4.volume;fontFamily=Helvetica;" parent="1" vertex="1">
          <mxGeometry x="-259.38" y="-1826.32" width="40" height="50.32" as="geometry" />
        </mxCell>
        <mxCell id="7JX_YpENttwIk4AB1Mbf-242" value="Aurora" style="sketch=0;points=[[0,0,0],[0.25,0,0],[0.5,0,0],[0.75,0,0],[1,0,0],[0,1,0],[0.25,1,0],[0.5,1,0],[0.75,1,0],[1,1,0],[0,0.25,0],[0,0.5,0],[0,0.75,0],[1,0.25,0],[1,0.5,0],[1,0.75,0]];outlineConnect=0;fontColor=#232F3E;gradientColor=#4D72F3;gradientDirection=north;fillColor=#3334B9;strokeColor=#ffffff;dashed=0;verticalLabelPosition=bottom;verticalAlign=top;align=center;html=1;fontSize=12;fontStyle=0;aspect=fixed;shape=mxgraph.aws4.resourceIcon;resIcon=mxgraph.aws4.aurora;" parent="1" vertex="1">
          <mxGeometry x="-223.38" y="-1920" width="38" height="38" as="geometry" />
        </mxCell>
        <mxCell id="7JX_YpENttwIk4AB1Mbf-243" value="Volume" style="sketch=0;outlineConnect=0;fontColor=#232F3E;gradientColor=none;fillColor=#3F8624;strokeColor=none;dashed=0;verticalLabelPosition=bottom;verticalAlign=top;align=center;html=1;fontSize=12;fontStyle=0;aspect=fixed;pointerEvents=1;shape=mxgraph.aws4.volume;fontFamily=Helvetica;" parent="1" vertex="1">
          <mxGeometry x="-198.38" y="-1826.32" width="40" height="50.32" as="geometry" />
        </mxCell>
        <mxCell id="7JX_YpENttwIk4AB1Mbf-246" value="AZ 3" style="fillColor=none;strokeColor=#147EBA;dashed=1;verticalAlign=top;fontStyle=0;fontColor=#147EBA;fontFamily=Helvetica;fontSize=12;" parent="1" vertex="1">
          <mxGeometry x="-88.38" y="-1970" width="160" height="220" as="geometry" />
        </mxCell>
        <mxCell id="7JX_YpENttwIk4AB1Mbf-255" style="edgeStyle=orthogonalEdgeStyle;rounded=0;orthogonalLoop=1;jettySize=auto;html=1;entryX=0.5;entryY=1;entryDx=0;entryDy=0;entryPerimeter=0;fontFamily=Helvetica;fontSize=12;fontColor=#000000;startArrow=none;startFill=0;fillColor=#f8cecc;strokeColor=#b85450;" parent="1" source="7JX_YpENttwIk4AB1Mbf-247" target="7JX_YpENttwIk4AB1Mbf-248" edge="1">
          <mxGeometry relative="1" as="geometry">
            <Array as="points">
              <mxPoint x="-9.379999999999995" y="-1800" />
            </Array>
          </mxGeometry>
        </mxCell>
        <mxCell id="7JX_YpENttwIk4AB1Mbf-247" value="Volume" style="sketch=0;outlineConnect=0;fontColor=#232F3E;gradientColor=none;fillColor=#3F8624;strokeColor=none;dashed=0;verticalLabelPosition=bottom;verticalAlign=top;align=center;html=1;fontSize=12;fontStyle=0;aspect=fixed;pointerEvents=1;shape=mxgraph.aws4.volume;fontFamily=Helvetica;" parent="1" vertex="1">
          <mxGeometry x="-64.38" y="-1826.32" width="40" height="50.32" as="geometry" />
        </mxCell>
        <mxCell id="7JX_YpENttwIk4AB1Mbf-248" value="Aurora" style="sketch=0;points=[[0,0,0],[0.25,0,0],[0.5,0,0],[0.75,0,0],[1,0,0],[0,1,0],[0.25,1,0],[0.5,1,0],[0.75,1,0],[1,1,0],[0,0.25,0],[0,0.5,0],[0,0.75,0],[1,0.25,0],[1,0.5,0],[1,0.75,0]];outlineConnect=0;fontColor=#232F3E;gradientColor=#4D72F3;gradientDirection=north;fillColor=#3334B9;strokeColor=#ffffff;dashed=0;verticalLabelPosition=bottom;verticalAlign=top;align=center;html=1;fontSize=12;fontStyle=0;aspect=fixed;shape=mxgraph.aws4.resourceIcon;resIcon=mxgraph.aws4.aurora;" parent="1" vertex="1">
          <mxGeometry x="-28.379999999999995" y="-1920" width="38" height="38" as="geometry" />
        </mxCell>
        <mxCell id="7JX_YpENttwIk4AB1Mbf-249" value="Volume" style="sketch=0;outlineConnect=0;fontColor=#232F3E;gradientColor=none;fillColor=#3F8624;strokeColor=none;dashed=0;verticalLabelPosition=bottom;verticalAlign=top;align=center;html=1;fontSize=12;fontStyle=0;aspect=fixed;pointerEvents=1;shape=mxgraph.aws4.volume;fontFamily=Helvetica;" parent="1" vertex="1">
          <mxGeometry x="-3.3799999999999955" y="-1826.32" width="40" height="50.32" as="geometry" />
        </mxCell>
        <mxCell id="7JX_YpENttwIk4AB1Mbf-252" value="&lt;ul&gt;&lt;li&gt;Writes are synchronous (quorum 4 of 6)&lt;/li&gt;&lt;li&gt;Cache on readers may be stale as it is refreshed asynchronously. Lag can be measured by metric&amp;nbsp;&lt;strong&gt;AuroraReplicaLag&lt;/strong&gt;&lt;/li&gt;&lt;/ul&gt;" style="text;html=1;strokeColor=none;fillColor=none;align=left;verticalAlign=middle;whiteSpace=wrap;rounded=0;fontSize=12;fontFamily=Helvetica;fontColor=#000000;" parent="1" vertex="1">
          <mxGeometry x="-768.38" y="-1910" width="280" height="65" as="geometry" />
        </mxCell>
        <mxCell id="7JX_YpENttwIk4AB1Mbf-262" value="AWS Auto scaling" style="sketch=0;points=[[0,0,0],[0.25,0,0],[0.5,0,0],[0.75,0,0],[1,0,0],[0,1,0],[0.25,1,0],[0.5,1,0],[0.75,1,0],[1,1,0],[0,0.25,0],[0,0.5,0],[0,0.75,0],[1,0.25,0],[1,0.5,0],[1,0.75,0]];points=[[0,0,0],[0.25,0,0],[0.5,0,0],[0.75,0,0],[1,0,0],[0,1,0],[0.25,1,0],[0.5,1,0],[0.75,1,0],[1,1,0],[0,0.25,0],[0,0.5,0],[0,0.75,0],[1,0.25,0],[1,0.5,0],[1,0.75,0]];outlineConnect=0;fontColor=#232F3E;gradientColor=#F34482;gradientDirection=north;fillColor=#BC1356;strokeColor=#ffffff;dashed=0;verticalLabelPosition=bottom;verticalAlign=top;align=center;html=1;fontSize=12;fontStyle=0;aspect=fixed;shape=mxgraph.aws4.resourceIcon;resIcon=mxgraph.aws4.autoscaling;fontFamily=Helvetica;" parent="1" vertex="1">
          <mxGeometry x="-584.25" y="-978.6800000000001" width="38" height="38" as="geometry" />
        </mxCell>
        <mxCell id="7JX_YpENttwIk4AB1Mbf-263" value="Storage Scaling" style="sketch=0;outlineConnect=0;fontColor=#232F3E;gradientColor=none;fillColor=#3F8624;strokeColor=none;dashed=0;verticalLabelPosition=bottom;verticalAlign=top;align=center;html=1;fontSize=12;fontStyle=0;aspect=fixed;pointerEvents=1;shape=mxgraph.aws4.volume;fontFamily=Helvetica;" parent="1" vertex="1">
          <mxGeometry x="-584.25" y="-1090" width="40" height="50.32" as="geometry" />
        </mxCell>
        <mxCell id="7JX_YpENttwIk4AB1Mbf-264" value="10 GB increments up to 64 TB or 128 TB (depends on DB engine version)" style="text;html=1;strokeColor=none;fillColor=none;align=center;verticalAlign=middle;whiteSpace=wrap;rounded=0;fontSize=12;fontFamily=Helvetica;fontColor=#000000;" parent="1" vertex="1">
          <mxGeometry x="-479.25" y="-1068.68" width="266" height="30" as="geometry" />
        </mxCell>
        <mxCell id="7JX_YpENttwIk4AB1Mbf-265" value="Configure auto scaling on managed instances.&lt;br&gt;Recommended metrics : CPUUtilization, Number of Connections" style="text;html=1;strokeColor=none;fillColor=none;align=center;verticalAlign=middle;whiteSpace=wrap;rounded=0;fontSize=12;fontFamily=Helvetica;fontColor=#000000;" parent="1" vertex="1">
          <mxGeometry x="-481.25" y="-977.6800000000001" width="310" height="60" as="geometry" />
        </mxCell>
        <mxCell id="7JX_YpENttwIk4AB1Mbf-267" value="&lt;ul&gt;&lt;li style=&quot;&quot;&gt;Can scale to 0 (since end 2024)&lt;/li&gt;&lt;li style=&quot;&quot;&gt;0 ACU to 256 ACU by increment of 0.5&lt;/li&gt;&lt;li style=&quot;&quot;&gt;1 ACU = 2 GB Memory + corresponding CPU&lt;/li&gt;&lt;li style=&quot;&quot;&gt;Managed auto scaling. Must configure minimum and maximum ACU.&lt;/li&gt;&lt;li&gt;The more ACU it has, the larger the increments are, the faster it scales&lt;/li&gt;&lt;li&gt;Readers in tier 0 or 1 scales the same than writer.&lt;/li&gt;&lt;li&gt;Readers in tier 2 to 15 can scale independently&lt;/li&gt;&lt;/ul&gt;" style="text;html=1;strokeColor=none;fillColor=none;align=left;verticalAlign=middle;whiteSpace=wrap;rounded=0;fontSize=12;fontFamily=Helvetica;fontColor=#000000;" parent="1" vertex="1">
          <mxGeometry x="-397" y="-797" width="380" height="149.68" as="geometry" />
        </mxCell>
        <mxCell id="7JX_YpENttwIk4AB1Mbf-269" value="&lt;ul&gt;&lt;li&gt;Resolution&amp;nbsp; : 1 min&lt;/li&gt;&lt;li&gt;Free of charge&lt;/li&gt;&lt;/ul&gt;" style="text;html=1;strokeColor=none;fillColor=none;align=left;verticalAlign=middle;whiteSpace=wrap;rounded=0;fontSize=12;fontFamily=Helvetica;fontColor=#000000;" parent="1" vertex="1">
          <mxGeometry x="1032.5" y="-1100" width="159" height="30" as="geometry" />
        </mxCell>
        <mxCell id="7JX_YpENttwIk4AB1Mbf-271" value="&lt;ul&gt;&lt;li&gt;Resolution&amp;nbsp; : 1s to 1 min&lt;/li&gt;&lt;li&gt;Additional metrics (OS level)&lt;/li&gt;&lt;li&gt;Can help identify performance issues&lt;/li&gt;&lt;/ul&gt;" style="text;html=1;strokeColor=none;fillColor=none;align=left;verticalAlign=middle;whiteSpace=wrap;rounded=0;fontSize=12;fontFamily=Helvetica;fontColor=#000000;" parent="1" vertex="1">
          <mxGeometry x="1032.5" y="-1039" width="310" height="50" as="geometry" />
        </mxCell>
        <mxCell id="7JX_YpENttwIk4AB1Mbf-272" value="CloudWatch Default Metrics" style="text;html=1;strokeColor=none;fillColor=none;align=center;verticalAlign=middle;whiteSpace=wrap;rounded=0;fontSize=12;fontFamily=Helvetica;fontColor=#000000;" parent="1" vertex="1">
          <mxGeometry x="852.5" y="-1099" width="180" height="30" as="geometry" />
        </mxCell>
        <mxCell id="7JX_YpENttwIk4AB1Mbf-275" value="Enhanced Monitoring" style="text;html=1;strokeColor=none;fillColor=none;align=center;verticalAlign=middle;whiteSpace=wrap;rounded=0;fontSize=12;fontFamily=Helvetica;fontColor=#000000;" parent="1" vertex="1">
          <mxGeometry x="872.5" y="-1027" width="150" height="30" as="geometry" />
        </mxCell>
        <mxCell id="7JX_YpENttwIk4AB1Mbf-276" value="RDS Performance Insights" style="text;html=1;strokeColor=none;fillColor=none;align=center;verticalAlign=middle;whiteSpace=wrap;rounded=0;fontSize=12;fontFamily=Helvetica;fontColor=#000000;" parent="1" vertex="1">
          <mxGeometry x="882.5" y="-939" width="150" height="30" as="geometry" />
        </mxCell>
        <mxCell id="7JX_YpENttwIk4AB1Mbf-277" value="&lt;ul&gt;&lt;li&gt;Pre-built dashboard&lt;/li&gt;&lt;li&gt;DB Loads metric&lt;/li&gt;&lt;li&gt;Filter by Wait, hosts, SQL commands, user&lt;/li&gt;&lt;li&gt;Helps Diagnose performance issues&lt;/li&gt;&lt;li&gt;Publish metrics to Cloudwatch&lt;/li&gt;&lt;/ul&gt;" style="text;html=1;strokeColor=none;fillColor=none;align=left;verticalAlign=middle;whiteSpace=wrap;rounded=0;fontSize=12;fontFamily=Helvetica;fontColor=#000000;" parent="1" vertex="1">
          <mxGeometry x="1032.5" y="-959" width="310" height="70" as="geometry" />
        </mxCell>
        <mxCell id="7JX_YpENttwIk4AB1Mbf-278" value="General Architecture" style="text;html=1;strokeColor=none;fillColor=none;align=center;verticalAlign=middle;whiteSpace=wrap;rounded=0;fontSize=14;fontFamily=Helvetica;fontColor=#000000;fontStyle=1" parent="1" vertex="1">
          <mxGeometry x="-744.38" y="-2050" width="180" height="30" as="geometry" />
        </mxCell>
        <mxCell id="7JX_YpENttwIk4AB1Mbf-279" value="Scaling" style="text;html=1;strokeColor=none;fillColor=none;align=center;verticalAlign=middle;whiteSpace=wrap;rounded=0;fontSize=14;fontFamily=Helvetica;fontColor=#000000;fontStyle=1" parent="1" vertex="1">
          <mxGeometry x="-850" y="-1120" width="207.5" height="30" as="geometry" />
        </mxCell>
        <mxCell id="7JX_YpENttwIk4AB1Mbf-280" value="Monitoring" style="text;html=1;strokeColor=none;fillColor=none;align=center;verticalAlign=middle;whiteSpace=wrap;rounded=0;fontSize=14;fontFamily=Helvetica;fontColor=#000000;fontStyle=1" parent="1" vertex="1">
          <mxGeometry x="632.5" y="-1130" width="180" height="30" as="geometry" />
        </mxCell>
        <mxCell id="7JX_YpENttwIk4AB1Mbf-281" value="Logging / Audit" style="text;html=1;strokeColor=none;fillColor=none;align=center;verticalAlign=middle;whiteSpace=wrap;rounded=0;fontSize=14;fontFamily=Helvetica;fontColor=#000000;fontStyle=1" parent="1" vertex="1">
          <mxGeometry x="650.5" y="-860" width="180" height="30" as="geometry" />
        </mxCell>
        <mxCell id="7JX_YpENttwIk4AB1Mbf-282" value="Backups" style="text;html=1;strokeColor=none;fillColor=none;align=center;verticalAlign=middle;whiteSpace=wrap;rounded=0;fontSize=14;fontFamily=Helvetica;fontColor=#000000;fontStyle=1" parent="1" vertex="1">
          <mxGeometry x="-803.76" y="358" width="180" height="30" as="geometry" />
        </mxCell>
        <mxCell id="7JX_YpENttwIk4AB1Mbf-283" value="Cloning" style="text;html=1;strokeColor=none;fillColor=none;align=center;verticalAlign=middle;whiteSpace=wrap;rounded=0;fontSize=14;fontFamily=Helvetica;fontColor=#000000;fontStyle=1" parent="1" vertex="1">
          <mxGeometry x="-792.76" y="688" width="180" height="30" as="geometry" />
        </mxCell>
        <mxCell id="7JX_YpENttwIk4AB1Mbf-284" value="Cluster Endpoints" style="text;html=1;strokeColor=none;fillColor=none;align=center;verticalAlign=middle;whiteSpace=wrap;rounded=0;fontSize=14;fontFamily=Helvetica;fontColor=#000000;fontStyle=1" parent="1" vertex="1">
          <mxGeometry x="-752.38" y="-1670" width="180" height="30" as="geometry" />
        </mxCell>
        <mxCell id="7JX_YpENttwIk4AB1Mbf-285" value="High Availability / Disaster Recovery" style="text;html=1;strokeColor=none;fillColor=none;align=center;verticalAlign=middle;whiteSpace=wrap;rounded=0;fontSize=14;fontFamily=Helvetica;fontColor=#000000;fontStyle=1" parent="1" vertex="1">
          <mxGeometry x="596" y="280" width="340" height="30" as="geometry" />
        </mxCell>
        <mxCell id="7JX_YpENttwIk4AB1Mbf-286" value="IAM DB Authentication" style="text;html=1;strokeColor=none;fillColor=none;align=center;verticalAlign=middle;whiteSpace=wrap;rounded=0;fontSize=14;fontFamily=Helvetica;fontColor=#000000;fontStyle=1" parent="1" vertex="1">
          <mxGeometry x="622" y="-2146" width="180" height="30" as="geometry" />
        </mxCell>
        <mxCell id="7JX_YpENttwIk4AB1Mbf-289" value="Zero ETL Integration" style="text;html=1;strokeColor=none;fillColor=none;align=center;verticalAlign=middle;whiteSpace=wrap;rounded=0;fontSize=14;fontFamily=Helvetica;fontColor=#000000;fontStyle=1" parent="1" vertex="1">
          <mxGeometry x="-733.26" y="1718" width="180" height="30" as="geometry" />
        </mxCell>
        <mxCell id="7JX_YpENttwIk4AB1Mbf-290" value="Lambda triggers" style="text;html=1;strokeColor=none;fillColor=none;align=center;verticalAlign=middle;whiteSpace=wrap;rounded=0;fontSize=14;fontFamily=Helvetica;fontColor=#000000;fontStyle=1" parent="1" vertex="1">
          <mxGeometry x="-747.26" y="1979" width="180" height="30" as="geometry" />
        </mxCell>
        <mxCell id="7JX_YpENttwIk4AB1Mbf-291" value="S3 Import / Export" style="text;html=1;strokeColor=none;fillColor=none;align=center;verticalAlign=middle;whiteSpace=wrap;rounded=0;fontSize=14;fontFamily=Helvetica;fontColor=#000000;fontStyle=1" parent="1" vertex="1">
          <mxGeometry x="-751.26" y="2238" width="180" height="30" as="geometry" />
        </mxCell>
        <mxCell id="7JX_YpENttwIk4AB1Mbf-292" value="&amp;nbsp;AWS Aurora Global Database" style="text;html=1;strokeColor=none;fillColor=none;align=center;verticalAlign=middle;whiteSpace=wrap;rounded=0;fontSize=12;fontFamily=Helvetica;fontColor=#000000;fontStyle=1" parent="1" vertex="1">
          <mxGeometry x="560" y="930" width="340" height="30" as="geometry" />
        </mxCell>
        <mxCell id="7JX_YpENttwIk4AB1Mbf-293" value="Cluster Cache Management" style="text;html=1;strokeColor=none;fillColor=none;align=center;verticalAlign=middle;whiteSpace=wrap;rounded=0;fontSize=14;fontFamily=Helvetica;fontColor=#000000;fontStyle=1" parent="1" vertex="1">
          <mxGeometry x="618" y="1410" width="273.5" height="30" as="geometry" />
        </mxCell>
        <mxCell id="7JX_YpENttwIk4AB1Mbf-294" value="Writer" style="sketch=0;outlineConnect=0;fontColor=#232F3E;gradientColor=none;fillColor=#2E27AD;strokeColor=none;dashed=0;verticalLabelPosition=bottom;verticalAlign=top;align=center;html=1;fontSize=12;fontStyle=0;aspect=fixed;pointerEvents=1;shape=mxgraph.aws4.aurora_instance;" parent="1" vertex="1">
          <mxGeometry x="714.75" y="1572" width="48" height="48" as="geometry" />
        </mxCell>
        <mxCell id="7JX_YpENttwIk4AB1Mbf-295" value="Read Replica&lt;br&gt;Tier 0" style="sketch=0;outlineConnect=0;fontColor=#232F3E;gradientColor=none;fillColor=#2E27AD;strokeColor=none;dashed=0;verticalLabelPosition=bottom;verticalAlign=top;align=center;html=1;fontSize=12;fontStyle=0;aspect=fixed;pointerEvents=1;shape=mxgraph.aws4.aurora_instance;" parent="1" vertex="1">
          <mxGeometry x="999.5" y="1572" width="48" height="48" as="geometry" />
        </mxCell>
        <mxCell id="7JX_YpENttwIk4AB1Mbf-297" style="edgeStyle=orthogonalEdgeStyle;rounded=0;orthogonalLoop=1;jettySize=auto;html=1;fontFamily=Helvetica;fontSize=12;fontColor=#000000;startArrow=none;startFill=0;" parent="1" edge="1">
          <mxGeometry relative="1" as="geometry">
            <mxPoint x="995.5" y="1583" as="sourcePoint" />
            <mxPoint x="765.5" y="1583" as="targetPoint" />
          </mxGeometry>
        </mxCell>
        <mxCell id="7JX_YpENttwIk4AB1Mbf-298" value="Sends buffer adresses that are currently cached" style="text;html=1;strokeColor=none;fillColor=none;align=center;verticalAlign=middle;whiteSpace=wrap;rounded=0;fontSize=12;fontFamily=Helvetica;fontColor=#000000;" parent="1" vertex="1">
          <mxGeometry x="802" y="1553" width="146" height="30" as="geometry" />
        </mxCell>
        <mxCell id="7JX_YpENttwIk4AB1Mbf-299" style="edgeStyle=orthogonalEdgeStyle;rounded=0;orthogonalLoop=1;jettySize=auto;html=1;fontFamily=Helvetica;fontSize=12;fontColor=#000000;startArrow=classic;startFill=1;endArrow=none;endFill=0;" parent="1" edge="1">
          <mxGeometry relative="1" as="geometry">
            <mxPoint x="999.5" y="1603" as="sourcePoint" />
            <mxPoint x="769.5" y="1603" as="targetPoint" />
          </mxGeometry>
        </mxCell>
        <mxCell id="7JX_YpENttwIk4AB1Mbf-300" value="Sends frequently used buffers" style="text;html=1;strokeColor=none;fillColor=none;align=center;verticalAlign=middle;whiteSpace=wrap;rounded=0;fontSize=12;fontFamily=Helvetica;fontColor=#000000;" parent="1" vertex="1">
          <mxGeometry x="785.5" y="1613" width="180" height="30" as="geometry" />
        </mxCell>
        <mxCell id="7JX_YpENttwIk4AB1Mbf-301" value="&lt;ul&gt;&lt;li&gt;Synchronizes cache between writer and priority failover target (tier 0)&lt;/li&gt;&lt;li&gt;In case of failover, avoid performance penalty because of caching differences&lt;/li&gt;&lt;li&gt;set apg_ccm_enabled=1 in parameter groups&lt;/li&gt;&lt;li&gt;not supported on Aurora serverless&lt;/li&gt;&lt;/ul&gt;" style="text;html=1;strokeColor=none;fillColor=none;align=left;verticalAlign=middle;whiteSpace=wrap;rounded=0;fontSize=12;fontFamily=Helvetica;fontColor=#000000;" parent="1" vertex="1">
          <mxGeometry x="681" y="1450" width="461" height="60" as="geometry" />
        </mxCell>
        <mxCell id="DNUVFYnU9td5xvq5z3T5-2" style="edgeStyle=orthogonalEdgeStyle;rounded=0;orthogonalLoop=1;jettySize=auto;html=1;" parent="1" source="DNUVFYnU9td5xvq5z3T5-1" target="7JX_YpENttwIk4AB1Mbf-210" edge="1">
          <mxGeometry relative="1" as="geometry" />
        </mxCell>
        <mxCell id="DNUVFYnU9td5xvq5z3T5-1" value="1. Create user with IAM authentication" style="text;html=1;strokeColor=none;fillColor=none;align=center;verticalAlign=middle;whiteSpace=wrap;rounded=0;" parent="1" vertex="1">
          <mxGeometry x="1197" y="-1955" width="123" height="30" as="geometry" />
        </mxCell>
        <mxCell id="AVcvdGrbrXcA9Ad8-uWb-1" value="RDS Proxy" style="text;html=1;strokeColor=none;fillColor=none;align=center;verticalAlign=middle;whiteSpace=wrap;rounded=0;fontSize=14;fontFamily=Helvetica;fontColor=#000000;fontStyle=1" parent="1" vertex="1">
          <mxGeometry x="618.75" y="-1600" width="103.5" height="30" as="geometry" />
        </mxCell>
        <mxCell id="p8NZ6zAE3w-yG8ZpCVFg-1" value="Serverless" style="text;html=1;strokeColor=none;fillColor=none;align=center;verticalAlign=middle;whiteSpace=wrap;rounded=0;fontSize=14;fontFamily=Helvetica;fontColor=#000000;fontStyle=1" parent="1" vertex="1">
          <mxGeometry x="-525" y="-890" width="180" height="30" as="geometry" />
        </mxCell>
        <mxCell id="p8NZ6zAE3w-yG8ZpCVFg-2" value="&lt;ul&gt;&lt;li style=&quot;&quot;&gt;serverless adapted to highly fluctuating workloads.&lt;/li&gt;&lt;li style=&quot;&quot;&gt;provisioned suited for steady workloads&lt;/li&gt;&lt;li style=&quot;&quot;&gt;can mix serverless with provisioned&lt;/li&gt;&lt;ul&gt;&lt;li style=&quot;&quot;&gt;serverless on writers, provisioned on readers&lt;/li&gt;&lt;li style=&quot;&quot;&gt;provisioned on writers, serverless on readers&lt;/li&gt;&lt;/ul&gt;&lt;/ul&gt;" style="text;html=1;strokeColor=none;fillColor=none;align=left;verticalAlign=middle;whiteSpace=wrap;rounded=0;fontSize=12;fontFamily=Helvetica;fontColor=#000000;" parent="1" vertex="1">
          <mxGeometry x="-810" y="-802.6800000000001" width="380" height="110" as="geometry" />
        </mxCell>
        <mxCell id="p8NZ6zAE3w-yG8ZpCVFg-4" value="&lt;ul&gt;&lt;li style=&quot;&quot;&gt;if DB works efficiently it it has some amount of data in buffer cache, adjust ACU to the amount of RAM needed&lt;/li&gt;&lt;li style=&quot;&quot;&gt;if it runs most of the time at a certain capacity, put the minimum lower than it, but not too much&lt;/li&gt;&lt;li style=&quot;&quot;&gt;Some Aurora features works better if the minimum &amp;gt; 0,5&lt;/li&gt;&lt;ul&gt;&lt;li style=&quot;&quot;&gt;Performance insights : 2 ACU&lt;/li&gt;&lt;li style=&quot;&quot;&gt;Global database : 8 ACU&lt;/li&gt;&lt;/ul&gt;&lt;li&gt;when setting ACU for readers that have Tier &amp;gt; 1, avoid excessive replication lag. It will happen if minimum is too low and cannot keep track of a write heavy workload&lt;/li&gt;&lt;/ul&gt;" style="text;html=1;strokeColor=none;fillColor=none;align=left;verticalAlign=middle;whiteSpace=wrap;rounded=0;fontSize=12;fontFamily=Helvetica;fontColor=#000000;" parent="1" vertex="1">
          <mxGeometry x="-836" y="-589.6800000000001" width="380" height="149.68" as="geometry" />
        </mxCell>
        <mxCell id="p8NZ6zAE3w-yG8ZpCVFg-5" value="&lt;ul&gt;&lt;li&gt;Set a maximum to control costs, to protect against excessive usage&lt;/li&gt;&lt;li&gt;Must determine priority between performance and cost on exceptional high peaks.&lt;/li&gt;&lt;/ul&gt;" style="text;html=1;strokeColor=none;fillColor=none;align=left;verticalAlign=middle;whiteSpace=wrap;rounded=0;fontSize=12;fontFamily=Helvetica;fontColor=#000000;" parent="1" vertex="1">
          <mxGeometry x="-397" y="-589.6800000000001" width="380" height="79.68" as="geometry" />
        </mxCell>
        <mxCell id="p8NZ6zAE3w-yG8ZpCVFg-8" value="Use cases" style="text;html=1;strokeColor=none;fillColor=none;align=center;verticalAlign=middle;whiteSpace=wrap;rounded=0;fontSize=14;fontFamily=Helvetica;fontColor=#000000;fontStyle=1" parent="1" vertex="1">
          <mxGeometry x="-745" y="-820" width="180" height="30" as="geometry" />
        </mxCell>
        <mxCell id="p8NZ6zAE3w-yG8ZpCVFg-10" value="Scaling basics" style="text;html=1;strokeColor=none;fillColor=none;align=center;verticalAlign=middle;whiteSpace=wrap;rounded=0;fontSize=14;fontFamily=Helvetica;fontColor=#000000;fontStyle=1" parent="1" vertex="1">
          <mxGeometry x="-297" y="-821.6800000000001" width="180" height="30" as="geometry" />
        </mxCell>
        <mxCell id="p8NZ6zAE3w-yG8ZpCVFg-11" value="Setting minimum ACU" style="text;html=1;strokeColor=none;fillColor=none;align=center;verticalAlign=middle;whiteSpace=wrap;rounded=0;fontSize=14;fontFamily=Helvetica;fontColor=#000000;fontStyle=1" parent="1" vertex="1">
          <mxGeometry x="-735" y="-629.6800000000001" width="180" height="30" as="geometry" />
        </mxCell>
        <mxCell id="p8NZ6zAE3w-yG8ZpCVFg-12" value="Setting maximum ACU" style="text;html=1;strokeColor=none;fillColor=none;align=center;verticalAlign=middle;whiteSpace=wrap;rounded=0;fontSize=14;fontFamily=Helvetica;fontColor=#000000;fontStyle=1" parent="1" vertex="1">
          <mxGeometry x="-292" y="-629.6800000000001" width="180" height="30" as="geometry" />
        </mxCell>
        <mxCell id="2dVnj18pgSdBOUYapdus-1" value="Backup And Restore" style="text;html=1;strokeColor=none;fillColor=none;align=center;verticalAlign=middle;whiteSpace=wrap;rounded=0;fontSize=12;fontFamily=Helvetica;fontColor=#000000;fontStyle=1" parent="1" vertex="1">
          <mxGeometry x="-866.51" y="1188" width="340" height="30" as="geometry" />
        </mxCell>
        <mxCell id="2dVnj18pgSdBOUYapdus-5" value="us-east-1" style="points=[[0,0],[0.25,0],[0.5,0],[0.75,0],[1,0],[1,0.25],[1,0.5],[1,0.75],[1,1],[0.75,1],[0.5,1],[0.25,1],[0,1],[0,0.75],[0,0.5],[0,0.25]];outlineConnect=0;gradientColor=none;html=1;whiteSpace=wrap;fontSize=12;fontStyle=0;container=1;pointerEvents=0;collapsible=0;recursiveResize=0;shape=mxgraph.aws4.group;grIcon=mxgraph.aws4.group_region;strokeColor=#147EBA;fillColor=none;verticalAlign=top;align=left;spacingLeft=30;fontColor=#147EBA;dashed=1;" parent="1" vertex="1">
          <mxGeometry x="-796.26" y="1236" width="359.75" height="232" as="geometry" />
        </mxCell>
        <mxCell id="2dVnj18pgSdBOUYapdus-19" style="edgeStyle=orthogonalEdgeStyle;rounded=0;orthogonalLoop=1;jettySize=auto;html=1;startArrow=classic;startFill=1;fillColor=#dae8fc;strokeColor=#6c8ebf;" parent="2dVnj18pgSdBOUYapdus-5" source="2dVnj18pgSdBOUYapdus-2" target="2dVnj18pgSdBOUYapdus-14" edge="1">
          <mxGeometry relative="1" as="geometry">
            <Array as="points">
              <mxPoint x="109" y="164" />
            </Array>
          </mxGeometry>
        </mxCell>
        <mxCell id="2dVnj18pgSdBOUYapdus-2" value="" style="sketch=0;outlineConnect=0;fontColor=#232F3E;gradientColor=none;fillColor=#2E27AD;strokeColor=none;dashed=0;verticalLabelPosition=bottom;verticalAlign=top;align=center;html=1;fontSize=12;fontStyle=0;aspect=fixed;pointerEvents=1;shape=mxgraph.aws4.aurora_instance;" parent="2dVnj18pgSdBOUYapdus-5" vertex="1">
          <mxGeometry x="81.75" y="52" width="55" height="55" as="geometry" />
        </mxCell>
        <mxCell id="2dVnj18pgSdBOUYapdus-3" value="Snapshot Repo" style="sketch=0;points=[[0,0,0],[0.25,0,0],[0.5,0,0],[0.75,0,0],[1,0,0],[0,1,0],[0.25,1,0],[0.5,1,0],[0.75,1,0],[1,1,0],[0,0.25,0],[0,0.5,0],[0,0.75,0],[1,0.25,0],[1,0.5,0],[1,0.75,0]];outlineConnect=0;fontColor=#232F3E;gradientColor=#60A337;gradientDirection=north;fillColor=#277116;strokeColor=#ffffff;dashed=0;verticalLabelPosition=bottom;verticalAlign=top;align=center;html=1;fontSize=12;fontStyle=0;aspect=fixed;shape=mxgraph.aws4.resourceIcon;resIcon=mxgraph.aws4.s3;" parent="2dVnj18pgSdBOUYapdus-5" vertex="1">
          <mxGeometry x="230" y="58" width="43" height="43" as="geometry" />
        </mxCell>
        <mxCell id="2dVnj18pgSdBOUYapdus-4" value="Snapshot" style="edgeStyle=orthogonalEdgeStyle;rounded=0;orthogonalLoop=1;jettySize=auto;html=1;entryX=0;entryY=0.5;entryDx=0;entryDy=0;entryPerimeter=0;fillColor=#ffe6cc;strokeColor=#d79b00;" parent="2dVnj18pgSdBOUYapdus-5" source="2dVnj18pgSdBOUYapdus-2" target="2dVnj18pgSdBOUYapdus-3" edge="1">
          <mxGeometry relative="1" as="geometry" />
        </mxCell>
        <mxCell id="2dVnj18pgSdBOUYapdus-14" value="Multi Region Key" style="sketch=0;outlineConnect=0;fontColor=#232F3E;gradientColor=none;fillColor=#BF0816;strokeColor=none;dashed=0;verticalLabelPosition=bottom;verticalAlign=top;align=center;html=1;fontSize=12;fontStyle=0;aspect=fixed;pointerEvents=1;shape=mxgraph.aws4.data_encryption_key;" parent="2dVnj18pgSdBOUYapdus-5" vertex="1">
          <mxGeometry x="232" y="142" width="35" height="44.03" as="geometry" />
        </mxCell>
        <mxCell id="2dVnj18pgSdBOUYapdus-6" value="us-east-2" style="points=[[0,0],[0.25,0],[0.5,0],[0.75,0],[1,0],[1,0.25],[1,0.5],[1,0.75],[1,1],[0.75,1],[0.5,1],[0.25,1],[0,1],[0,0.75],[0,0.5],[0,0.25]];outlineConnect=0;gradientColor=none;html=1;whiteSpace=wrap;fontSize=12;fontStyle=0;container=1;pointerEvents=0;collapsible=0;recursiveResize=0;shape=mxgraph.aws4.group;grIcon=mxgraph.aws4.group_region;strokeColor=#147EBA;fillColor=none;verticalAlign=top;align=left;spacingLeft=30;fontColor=#147EBA;dashed=1;" parent="1" vertex="1">
          <mxGeometry x="-304.38" y="1228" width="359.75" height="240" as="geometry" />
        </mxCell>
        <mxCell id="2dVnj18pgSdBOUYapdus-13" value="Restore" style="edgeStyle=orthogonalEdgeStyle;rounded=0;orthogonalLoop=1;jettySize=auto;html=1;fillColor=#ffe6cc;strokeColor=#d79b00;" parent="2dVnj18pgSdBOUYapdus-6" source="2dVnj18pgSdBOUYapdus-8" target="2dVnj18pgSdBOUYapdus-12" edge="1">
          <mxGeometry relative="1" as="geometry" />
        </mxCell>
        <mxCell id="2dVnj18pgSdBOUYapdus-8" value="Snapshot Repo" style="sketch=0;points=[[0,0,0],[0.25,0,0],[0.5,0,0],[0.75,0,0],[1,0,0],[0,1,0],[0.25,1,0],[0.5,1,0],[0.75,1,0],[1,1,0],[0,0.25,0],[0,0.5,0],[0,0.75,0],[1,0.25,0],[1,0.5,0],[1,0.75,0]];outlineConnect=0;fontColor=#232F3E;gradientColor=#60A337;gradientDirection=north;fillColor=#277116;strokeColor=#ffffff;dashed=0;verticalLabelPosition=bottom;verticalAlign=top;align=center;html=1;fontSize=12;fontStyle=0;aspect=fixed;shape=mxgraph.aws4.resourceIcon;resIcon=mxgraph.aws4.s3;" parent="2dVnj18pgSdBOUYapdus-6" vertex="1">
          <mxGeometry x="58.870000000000005" y="66" width="43" height="43" as="geometry" />
        </mxCell>
        <mxCell id="2dVnj18pgSdBOUYapdus-18" style="edgeStyle=orthogonalEdgeStyle;rounded=0;orthogonalLoop=1;jettySize=auto;html=1;startArrow=classic;startFill=1;fillColor=#dae8fc;strokeColor=#6c8ebf;" parent="2dVnj18pgSdBOUYapdus-6" source="2dVnj18pgSdBOUYapdus-12" target="2dVnj18pgSdBOUYapdus-15" edge="1">
          <mxGeometry relative="1" as="geometry">
            <Array as="points">
              <mxPoint x="257" y="172" />
            </Array>
          </mxGeometry>
        </mxCell>
        <mxCell id="2dVnj18pgSdBOUYapdus-12" value="" style="sketch=0;outlineConnect=0;fontColor=#232F3E;gradientColor=none;fillColor=#2E27AD;strokeColor=none;dashed=0;verticalLabelPosition=bottom;verticalAlign=top;align=center;html=1;fontSize=12;fontStyle=0;aspect=fixed;pointerEvents=1;shape=mxgraph.aws4.aurora_instance;" parent="2dVnj18pgSdBOUYapdus-6" vertex="1">
          <mxGeometry x="229.87" y="60" width="55" height="55" as="geometry" />
        </mxCell>
        <mxCell id="2dVnj18pgSdBOUYapdus-15" value="Multi Region Key" style="sketch=0;outlineConnect=0;fontColor=#232F3E;gradientColor=none;fillColor=#BF0816;strokeColor=none;dashed=0;verticalLabelPosition=bottom;verticalAlign=top;align=center;html=1;fontSize=12;fontStyle=0;aspect=fixed;pointerEvents=1;shape=mxgraph.aws4.data_encryption_key;" parent="2dVnj18pgSdBOUYapdus-6" vertex="1">
          <mxGeometry x="66.87" y="150" width="35" height="44.03" as="geometry" />
        </mxCell>
        <mxCell id="2dVnj18pgSdBOUYapdus-11" value="Copy" style="edgeStyle=orthogonalEdgeStyle;rounded=0;orthogonalLoop=1;jettySize=auto;html=1;entryX=0;entryY=0.5;entryDx=0;entryDy=0;entryPerimeter=0;fillColor=#ffe6cc;strokeColor=#d79b00;" parent="1" source="2dVnj18pgSdBOUYapdus-3" target="2dVnj18pgSdBOUYapdus-8" edge="1">
          <mxGeometry relative="1" as="geometry" />
        </mxCell>
        <mxCell id="2dVnj18pgSdBOUYapdus-16" style="edgeStyle=orthogonalEdgeStyle;rounded=0;orthogonalLoop=1;jettySize=auto;html=1;" parent="1" source="2dVnj18pgSdBOUYapdus-14" target="2dVnj18pgSdBOUYapdus-15" edge="1">
          <mxGeometry relative="1" as="geometry" />
        </mxCell>
        <mxCell id="2dVnj18pgSdBOUYapdus-17" value="Copy" style="edgeLabel;html=1;align=center;verticalAlign=middle;resizable=0;points=[];" parent="2dVnj18pgSdBOUYapdus-16" vertex="1" connectable="0">
          <mxGeometry x="0.2281" y="-1" relative="1" as="geometry">
            <mxPoint as="offset" />
          </mxGeometry>
        </mxCell>
        <mxCell id="2dVnj18pgSdBOUYapdus-21" value="Database internal events" style="text;html=1;strokeColor=none;fillColor=none;align=center;verticalAlign=middle;whiteSpace=wrap;rounded=0;fontSize=13;fontFamily=Helvetica;fontColor=#000000;fontStyle=1" parent="1" vertex="1">
          <mxGeometry x="692.5" y="-820" width="180" height="30" as="geometry" />
        </mxCell>
        <mxCell id="2dVnj18pgSdBOUYapdus-22" value="RDS events" style="text;html=1;strokeColor=none;fillColor=none;align=center;verticalAlign=middle;whiteSpace=wrap;rounded=0;fontSize=13;fontFamily=Helvetica;fontColor=#000000;fontStyle=1" parent="1" vertex="1">
          <mxGeometry x="677" y="-270" width="180" height="30" as="geometry" />
        </mxCell>
        <mxCell id="2dVnj18pgSdBOUYapdus-25" style="edgeStyle=orthogonalEdgeStyle;rounded=0;orthogonalLoop=1;jettySize=auto;html=1;entryX=0;entryY=0.5;entryDx=0;entryDy=0;entryPerimeter=0;fontSize=13;startArrow=none;startFill=0;" parent="1" source="2dVnj18pgSdBOUYapdus-23" target="2dVnj18pgSdBOUYapdus-24" edge="1">
          <mxGeometry relative="1" as="geometry" />
        </mxCell>
        <mxCell id="2dVnj18pgSdBOUYapdus-23" value="Aurora" style="sketch=0;points=[[0,0,0],[0.25,0,0],[0.5,0,0],[0.75,0,0],[1,0,0],[0,1,0],[0.25,1,0],[0.5,1,0],[0.75,1,0],[1,1,0],[0,0.25,0],[0,0.5,0],[0,0.75,0],[1,0.25,0],[1,0.5,0],[1,0.75,0]];outlineConnect=0;fontColor=#232F3E;gradientColor=#4D72F3;gradientDirection=north;fillColor=#3334B9;strokeColor=#ffffff;dashed=0;verticalLabelPosition=bottom;verticalAlign=top;align=center;html=1;fontSize=12;fontStyle=0;aspect=fixed;shape=mxgraph.aws4.resourceIcon;resIcon=mxgraph.aws4.aurora;" parent="1" vertex="1">
          <mxGeometry x="789.5" y="-190" width="48" height="48" as="geometry" />
        </mxCell>
        <mxCell id="2dVnj18pgSdBOUYapdus-27" value="" style="edgeStyle=orthogonalEdgeStyle;rounded=0;orthogonalLoop=1;jettySize=auto;html=1;fontSize=13;startArrow=none;startFill=0;" parent="1" source="2dVnj18pgSdBOUYapdus-24" target="2dVnj18pgSdBOUYapdus-26" edge="1">
          <mxGeometry relative="1" as="geometry" />
        </mxCell>
        <mxCell id="2dVnj18pgSdBOUYapdus-24" value="event bridge" style="sketch=0;points=[[0,0,0],[0.25,0,0],[0.5,0,0],[0.75,0,0],[1,0,0],[0,1,0],[0.25,1,0],[0.5,1,0],[0.75,1,0],[1,1,0],[0,0.25,0],[0,0.5,0],[0,0.75,0],[1,0.25,0],[1,0.5,0],[1,0.75,0]];outlineConnect=0;fontColor=#232F3E;gradientColor=#FF4F8B;gradientDirection=north;fillColor=#BC1356;strokeColor=#ffffff;dashed=0;verticalLabelPosition=bottom;verticalAlign=top;align=center;html=1;fontSize=12;fontStyle=0;aspect=fixed;shape=mxgraph.aws4.resourceIcon;resIcon=mxgraph.aws4.eventbridge;" parent="1" vertex="1">
          <mxGeometry x="930" y="-193" width="55" height="55" as="geometry" />
        </mxCell>
        <mxCell id="2dVnj18pgSdBOUYapdus-26" value="" style="outlineConnect=0;dashed=0;verticalLabelPosition=bottom;verticalAlign=top;align=center;html=1;shape=mxgraph.aws3.lambda_function;fillColor=#F58534;gradientColor=none;" parent="1" vertex="1">
          <mxGeometry x="1120" y="-187" width="39" height="42" as="geometry" />
        </mxCell>
        <mxCell id="2dVnj18pgSdBOUYapdus-28" value="filter" style="text;html=1;strokeColor=none;fillColor=none;align=center;verticalAlign=middle;whiteSpace=wrap;rounded=0;fontSize=13;" parent="1" vertex="1">
          <mxGeometry x="1022" y="-193" width="60" height="30" as="geometry" />
        </mxCell>
        <mxCell id="2dVnj18pgSdBOUYapdus-31" value="rds events" style="edgeStyle=orthogonalEdgeStyle;rounded=0;orthogonalLoop=1;jettySize=auto;html=1;entryX=0;entryY=0.5;entryDx=0;entryDy=0;entryPerimeter=0;fontSize=13;startArrow=none;startFill=0;" parent="1" source="2dVnj18pgSdBOUYapdus-29" target="2dVnj18pgSdBOUYapdus-30" edge="1">
          <mxGeometry relative="1" as="geometry" />
        </mxCell>
        <mxCell id="2dVnj18pgSdBOUYapdus-29" value="Aurora" style="sketch=0;points=[[0,0,0],[0.25,0,0],[0.5,0,0],[0.75,0,0],[1,0,0],[0,1,0],[0.25,1,0],[0.5,1,0],[0.75,1,0],[1,1,0],[0,0.25,0],[0,0.5,0],[0,0.75,0],[1,0.25,0],[1,0.5,0],[1,0.75,0]];outlineConnect=0;fontColor=#232F3E;gradientColor=#4D72F3;gradientDirection=north;fillColor=#3334B9;strokeColor=#ffffff;dashed=0;verticalLabelPosition=bottom;verticalAlign=top;align=center;html=1;fontSize=12;fontStyle=0;aspect=fixed;shape=mxgraph.aws4.resourceIcon;resIcon=mxgraph.aws4.aurora;" parent="1" vertex="1">
          <mxGeometry x="786.5" y="-40" width="48" height="48" as="geometry" />
        </mxCell>
        <mxCell id="2dVnj18pgSdBOUYapdus-33" value="subscription &lt;br&gt;filter" style="edgeStyle=orthogonalEdgeStyle;rounded=0;orthogonalLoop=1;jettySize=auto;html=1;entryX=0;entryY=0.5;entryDx=0;entryDy=0;entryPerimeter=0;fontSize=13;startArrow=none;startFill=0;" parent="1" source="2dVnj18pgSdBOUYapdus-30" target="2dVnj18pgSdBOUYapdus-32" edge="1">
          <mxGeometry relative="1" as="geometry" />
        </mxCell>
        <mxCell id="2dVnj18pgSdBOUYapdus-30" value="sns" style="sketch=0;points=[[0,0,0],[0.25,0,0],[0.5,0,0],[0.75,0,0],[1,0,0],[0,1,0],[0.25,1,0],[0.5,1,0],[0.75,1,0],[1,1,0],[0,0.25,0],[0,0.5,0],[0,0.75,0],[1,0.25,0],[1,0.5,0],[1,0.75,0]];outlineConnect=0;fontColor=#232F3E;gradientColor=#FF4F8B;gradientDirection=north;fillColor=#BC1356;strokeColor=#ffffff;dashed=0;verticalLabelPosition=bottom;verticalAlign=top;align=center;html=1;fontSize=12;fontStyle=0;aspect=fixed;shape=mxgraph.aws4.resourceIcon;resIcon=mxgraph.aws4.sns;" parent="1" vertex="1">
          <mxGeometry x="933.75" y="-42" width="52" height="52" as="geometry" />
        </mxCell>
        <mxCell id="2dVnj18pgSdBOUYapdus-32" value="" style="outlineConnect=0;dashed=0;verticalLabelPosition=bottom;verticalAlign=top;align=center;html=1;shape=mxgraph.aws3.lambda_function;fillColor=#F58534;gradientColor=none;" parent="1" vertex="1">
          <mxGeometry x="1122" y="-37" width="39" height="42" as="geometry" />
        </mxCell>
        <mxCell id="2dVnj18pgSdBOUYapdus-34" value="Interacting with Aurora" style="text;html=1;strokeColor=none;fillColor=none;align=center;verticalAlign=middle;whiteSpace=wrap;rounded=0;fontSize=14;fontFamily=Helvetica;fontColor=#000000;fontStyle=1" parent="1" vertex="1">
          <mxGeometry x="597.25" y="-1876" width="207.5" height="30" as="geometry" />
        </mxCell>
        <mxCell id="2dVnj18pgSdBOUYapdus-35" value="&lt;div&gt;aws &lt;font color=&quot;#ff3333&quot;&gt;rds-data&lt;/font&gt; &lt;font color=&quot;#009900&quot;&gt;execute-statement&lt;/font&gt; &lt;font color=&quot;#ffb366&quot;&gt;--resource-arn&lt;/font&gt; &quot;arn:aws:rds:us-east-1:123456789012:cluster:mydbcluster&quot;&lt;/div&gt;&lt;div&gt;&lt;font color=&quot;#ffb366&quot;&gt;--database&lt;/font&gt; &quot;mydb&quot; &lt;font color=&quot;#ffb366&quot;&gt;--secret-arn&lt;/font&gt; &quot;arn:aws:secretsmanager:us-east-1:123456789012:secret:mysecret&quot;&lt;/div&gt;&lt;div&gt;&lt;font color=&quot;#ffb366&quot;&gt;--sql&lt;/font&gt; &quot;select * from mytable&quot;&lt;/div&gt;" style="text;html=1;strokeColor=none;fillColor=none;align=center;verticalAlign=middle;whiteSpace=wrap;rounded=0;fontSize=13;" parent="1" vertex="1">
          <mxGeometry x="834.25" y="-1770" width="830" height="80" as="geometry" />
        </mxCell>
        <mxCell id="2dVnj18pgSdBOUYapdus-36" value="RDS Data API" style="text;html=1;strokeColor=none;fillColor=none;align=center;verticalAlign=middle;whiteSpace=wrap;rounded=0;fontSize=13;fontColor=#000000;" parent="1" vertex="1">
          <mxGeometry x="611" y="-1826" width="152" height="30" as="geometry" />
        </mxCell>
        <mxCell id="2dVnj18pgSdBOUYapdus-37" value="&lt;ul&gt;&lt;li&gt;no password needed (stored in Secret Manager)&lt;/li&gt;&lt;li&gt;cloudtrail log&lt;/li&gt;&lt;li&gt;connection pooling&lt;/li&gt;&lt;li&gt;https, encrypted by default&lt;/li&gt;&lt;/ul&gt;" style="text;html=1;strokeColor=none;fillColor=none;align=left;verticalAlign=middle;whiteSpace=wrap;rounded=0;fontSize=13;fontColor=#000000;" parent="1" vertex="1">
          <mxGeometry x="566.75" y="-1796" width="336.25" height="70" as="geometry" />
        </mxCell>
        <mxCell id="2dVnj18pgSdBOUYapdus-38" value="&lt;ul&gt;&lt;li&gt;does not support multi statement&lt;/li&gt;&lt;li&gt;does not support multidimentional array columns&lt;/li&gt;&lt;/ul&gt;" style="text;html=1;strokeColor=none;fillColor=none;align=left;verticalAlign=middle;whiteSpace=wrap;rounded=0;fontSize=13;fontColor=#000000;" parent="1" vertex="1">
          <mxGeometry x="566.75" y="-1726" width="290" height="70" as="geometry" />
        </mxCell>
        <mxCell id="2dVnj18pgSdBOUYapdus-52" style="edgeStyle=orthogonalEdgeStyle;rounded=0;orthogonalLoop=1;jettySize=auto;html=1;entryX=0.405;entryY=-0.073;entryDx=0;entryDy=0;entryPerimeter=0;fontFamily=Helvetica;fontSize=13;fontColor=#000000;startArrow=none;startFill=0;" parent="1" source="2dVnj18pgSdBOUYapdus-40" target="2dVnj18pgSdBOUYapdus-45" edge="1">
          <mxGeometry relative="1" as="geometry" />
        </mxCell>
        <mxCell id="2dVnj18pgSdBOUYapdus-40" value="&lt;font face=&quot;Helvetica&quot;&gt;Aurora endpoint&lt;/font&gt;" style="sketch=0;outlineConnect=0;fontColor=#232F3E;gradientColor=none;fillColor=#4D27AA;strokeColor=none;dashed=0;verticalLabelPosition=bottom;verticalAlign=top;align=center;html=1;fontSize=12;fontStyle=0;aspect=fixed;pointerEvents=1;shape=mxgraph.aws4.endpoint;fontFamily=Comic Sans MS;" parent="1" vertex="1">
          <mxGeometry x="-305.88" y="-277" width="45" height="45" as="geometry" />
        </mxCell>
        <mxCell id="2dVnj18pgSdBOUYapdus-41" value="" style="verticalLabelPosition=bottom;sketch=0;aspect=fixed;html=1;verticalAlign=top;strokeColor=none;align=center;outlineConnect=0;shape=mxgraph.citrix.router;fontFamily=Helvetica;fontSize=13;fontColor=#000000;" parent="1" vertex="1">
          <mxGeometry x="-371.63" y="-140.39000000000033" width="37.5" height="24.89" as="geometry" />
        </mxCell>
        <mxCell id="2dVnj18pgSdBOUYapdus-42" value="" style="verticalLabelPosition=bottom;sketch=0;aspect=fixed;html=1;verticalAlign=top;strokeColor=none;align=center;outlineConnect=0;shape=mxgraph.citrix.router;fontFamily=Helvetica;fontSize=13;fontColor=#000000;" parent="1" vertex="1">
          <mxGeometry x="-293.13" y="-140.39000000000033" width="37.5" height="24.89" as="geometry" />
        </mxCell>
        <mxCell id="2dVnj18pgSdBOUYapdus-43" value="" style="verticalLabelPosition=bottom;sketch=0;aspect=fixed;html=1;verticalAlign=top;strokeColor=none;align=center;outlineConnect=0;shape=mxgraph.citrix.router;fontFamily=Helvetica;fontSize=13;fontColor=#000000;" parent="1" vertex="1">
          <mxGeometry x="-210.38" y="-140.39000000000033" width="37.5" height="24.89" as="geometry" />
        </mxCell>
        <mxCell id="2dVnj18pgSdBOUYapdus-45" value="Routers" style="text;html=1;strokeColor=none;fillColor=none;align=center;verticalAlign=middle;whiteSpace=wrap;rounded=0;fontSize=13;fontFamily=Helvetica;fontColor=#000000;" parent="1" vertex="1">
          <mxGeometry x="-306.38" y="-180" width="60" height="30" as="geometry" />
        </mxCell>
        <mxCell id="2dVnj18pgSdBOUYapdus-46" value="" style="sketch=0;outlineConnect=0;fontColor=#232F3E;gradientColor=none;fillColor=#2E27AD;strokeColor=none;dashed=0;verticalLabelPosition=bottom;verticalAlign=top;align=center;html=1;fontSize=12;fontStyle=0;aspect=fixed;pointerEvents=1;shape=mxgraph.aws4.aurora_instance;fontFamily=Helvetica;" parent="1" vertex="1">
          <mxGeometry x="-448.63" y="-30" width="58" height="58" as="geometry" />
        </mxCell>
        <mxCell id="2dVnj18pgSdBOUYapdus-47" value="" style="sketch=0;outlineConnect=0;fontColor=#232F3E;gradientColor=none;fillColor=#2E27AD;strokeColor=none;dashed=0;verticalLabelPosition=bottom;verticalAlign=top;align=center;html=1;fontSize=12;fontStyle=0;aspect=fixed;pointerEvents=1;shape=mxgraph.aws4.aurora_instance;fontFamily=Helvetica;" parent="1" vertex="1">
          <mxGeometry x="-346.88" y="-30" width="58" height="58" as="geometry" />
        </mxCell>
        <mxCell id="2dVnj18pgSdBOUYapdus-48" value="" style="sketch=0;outlineConnect=0;fontColor=#232F3E;gradientColor=none;fillColor=#2E27AD;strokeColor=none;dashed=0;verticalLabelPosition=bottom;verticalAlign=top;align=center;html=1;fontSize=12;fontStyle=0;aspect=fixed;pointerEvents=1;shape=mxgraph.aws4.aurora_instance;fontFamily=Helvetica;" parent="1" vertex="1">
          <mxGeometry x="-250.38" y="-30" width="58" height="58" as="geometry" />
        </mxCell>
        <mxCell id="2dVnj18pgSdBOUYapdus-49" value="" style="sketch=0;outlineConnect=0;fontColor=#232F3E;gradientColor=none;fillColor=#2E27AD;strokeColor=none;dashed=0;verticalLabelPosition=bottom;verticalAlign=top;align=center;html=1;fontSize=12;fontStyle=0;aspect=fixed;pointerEvents=1;shape=mxgraph.aws4.aurora_instance;fontFamily=Helvetica;" parent="1" vertex="1">
          <mxGeometry x="-148.13" y="-30" width="58" height="58" as="geometry" />
        </mxCell>
        <mxCell id="2dVnj18pgSdBOUYapdus-50" value="" style="rounded=1;whiteSpace=wrap;html=1;fontFamily=Helvetica;fontSize=13;fontColor=#000000;fillColor=none;dashed=1;" parent="1" vertex="1">
          <mxGeometry x="-502.38" y="-70" width="476.5" height="109" as="geometry" />
        </mxCell>
        <mxCell id="2dVnj18pgSdBOUYapdus-51" value="DB Shards" style="text;html=1;strokeColor=none;fillColor=none;align=center;verticalAlign=middle;whiteSpace=wrap;rounded=0;fontSize=13;fontFamily=Helvetica;fontColor=#000000;" parent="1" vertex="1">
          <mxGeometry x="-312.63" y="-70" width="84.75" height="30" as="geometry" />
        </mxCell>
        <mxCell id="2dVnj18pgSdBOUYapdus-54" value="" style="strokeWidth=2;html=1;shape=mxgraph.flowchart.database;whiteSpace=wrap;fontFamily=Helvetica;fontSize=13;fontColor=#000000;fillColor=none;" parent="1" vertex="1">
          <mxGeometry x="-407.88" y="110" width="47.25" height="30" as="geometry" />
        </mxCell>
        <mxCell id="2dVnj18pgSdBOUYapdus-55" value="" style="strokeWidth=2;html=1;shape=mxgraph.flowchart.database;whiteSpace=wrap;fontFamily=Helvetica;fontSize=13;fontColor=#000000;fillColor=none;" parent="1" vertex="1">
          <mxGeometry x="-294.5100000000001" y="110" width="47.25" height="30" as="geometry" />
        </mxCell>
        <mxCell id="2dVnj18pgSdBOUYapdus-56" value="" style="strokeWidth=2;html=1;shape=mxgraph.flowchart.database;whiteSpace=wrap;fontFamily=Helvetica;fontSize=13;fontColor=#000000;fillColor=none;" parent="1" vertex="1">
          <mxGeometry x="-172.13" y="109.5" width="47.25" height="30" as="geometry" />
        </mxCell>
        <mxCell id="2dVnj18pgSdBOUYapdus-59" value="Aurora storage" style="text;html=1;strokeColor=none;fillColor=none;align=center;verticalAlign=middle;whiteSpace=wrap;rounded=0;fontSize=13;fontFamily=Helvetica;fontColor=#000000;" parent="1" vertex="1">
          <mxGeometry x="-328.88" y="70" width="123" height="30" as="geometry" />
        </mxCell>
        <mxCell id="2dVnj18pgSdBOUYapdus-60" value="&lt;ul&gt;&lt;li&gt;scales also on writes&lt;/li&gt;&lt;li&gt;managed distributed transaction&lt;/li&gt;&lt;li&gt;aggregate results located in multiple shards&lt;/li&gt;&lt;li&gt;parse SQL query to know in which shard to read/write&lt;/li&gt;&lt;/ul&gt;" style="text;html=1;strokeColor=none;fillColor=none;align=left;verticalAlign=middle;whiteSpace=wrap;rounded=0;fontSize=13;fontFamily=Helvetica;fontColor=#000000;" parent="1" vertex="1">
          <mxGeometry x="-805.88" y="-290" width="360" height="70" as="geometry" />
        </mxCell>
        <mxCell id="2dVnj18pgSdBOUYapdus-61" value="&lt;ul&gt;&lt;li&gt;a significant number of aurora features &lt;a href=&quot;%3CmxGraphModel%3E%3Croot%3E%3CmxCell%20id%3D%220%22%2F%3E%3CmxCell%20id%3D%221%22%20parent%3D%220%22%2F%3E%3CmxCell%20id%3D%222%22%20value%3D%22%26lt%3Bul%26gt%3B%26lt%3Bli%26gt%3Bscales%20on%20writes%26lt%3B%2Fli%26gt%3B%26lt%3Bli%26gt%3Bmanaged%20distributed%20transaction%26lt%3B%2Fli%26gt%3B%26lt%3Bli%26gt%3Baggregate%20results%20located%20in%20multiple%20shards%26lt%3B%2Fli%26gt%3B%26lt%3Bli%26gt%3Bparse%20SQL%20query%20to%20know%20in%20which%20shard%20to%20read%2Fwrite%26lt%3B%2Fli%26gt%3B%26lt%3B%2Ful%26gt%3B%22%20style%3D%22text%3Bhtml%3D1%3BstrokeColor%3Dnone%3BfillColor%3Dnone%3Balign%3Dleft%3BverticalAlign%3Dmiddle%3BwhiteSpace%3Dwrap%3Brounded%3D0%3BfontSize%3D13%3BfontFamily%3DHelvetica%3BfontColor%3D%23000000%3B%22%20vertex%3D%221%22%20parent%3D%221%22%3E%3CmxGeometry%20x%3D%22-470%22%20y%3D%225350%22%20width%3D%22360%22%20height%3D%2270%22%20as%3D%22geometry%22%2F%3E%3C%2FmxCell%3E%3C%2Froot%3E%3C%2FmxGraphModel%3E&quot;&gt;are not supported&lt;/a&gt;&lt;/li&gt;&lt;/ul&gt;" style="text;html=1;strokeColor=none;fillColor=none;align=left;verticalAlign=middle;whiteSpace=wrap;rounded=0;fontSize=13;fontFamily=Helvetica;fontColor=#000000;" parent="1" vertex="1">
          <mxGeometry x="-808.63" y="-185.5" width="360" height="70" as="geometry" />
        </mxCell>
        <mxCell id="2dVnj18pgSdBOUYapdus-62" value="Limitless Database" style="text;html=1;strokeColor=none;fillColor=none;align=center;verticalAlign=middle;whiteSpace=wrap;rounded=0;fontSize=14;fontFamily=Helvetica;fontColor=#000000;fontStyle=1" parent="1" vertex="1">
          <mxGeometry x="-748.88" y="-370" width="180" height="30" as="geometry" />
        </mxCell>
        <mxCell id="lUtUu6bvZHFrBesHKLuT-2" value="" style="rounded=1;whiteSpace=wrap;html=1;fillColor=none;dashed=1;" parent="1" vertex="1">
          <mxGeometry x="482" y="-2185" width="1287" height="910" as="geometry" />
        </mxCell>
        <mxCell id="lUtUu6bvZHFrBesHKLuT-4" value="" style="rounded=1;whiteSpace=wrap;html=1;fillColor=none;dashed=1;" parent="1" vertex="1">
          <mxGeometry x="490" y="-1180" width="1360" height="1280" as="geometry" />
        </mxCell>
        <mxCell id="lUtUu6bvZHFrBesHKLuT-5" value="" style="rounded=1;whiteSpace=wrap;html=1;fillColor=none;dashed=1;" parent="1" vertex="1">
          <mxGeometry x="-1023.51" y="290" width="1327" height="1268" as="geometry" />
        </mxCell>
        <mxCell id="lUtUu6bvZHFrBesHKLuT-6" value="" style="rounded=1;whiteSpace=wrap;html=1;fillColor=none;dashed=1;" parent="1" vertex="1">
          <mxGeometry x="482" y="206" width="1438" height="1680" as="geometry" />
        </mxCell>
        <mxCell id="lUtUu6bvZHFrBesHKLuT-7" value="" style="rounded=1;whiteSpace=wrap;html=1;fillColor=none;dashed=1;" parent="1" vertex="1">
          <mxGeometry x="-1046.26" y="1648" width="1327" height="850" as="geometry" />
        </mxCell>
        <mxCell id="lUtUu6bvZHFrBesHKLuT-9" value="Aurora cluster overview" style="text;html=1;strokeColor=none;fillColor=none;align=center;verticalAlign=middle;whiteSpace=wrap;rounded=0;fontSize=20;fontFamily=Helvetica;fontColor=#000000;fontStyle=1" parent="1" vertex="1">
          <mxGeometry x="-892.38" y="-2215" width="320" height="30" as="geometry" />
        </mxCell>
        <mxCell id="lUtUu6bvZHFrBesHKLuT-10" value="Accessing Aurora cluster" style="text;html=1;strokeColor=none;fillColor=none;align=center;verticalAlign=middle;whiteSpace=wrap;rounded=0;fontSize=20;fontFamily=Helvetica;fontColor=#000000;fontStyle=1" parent="1" vertex="1">
          <mxGeometry x="551.5000000000001" y="-2240" width="320" height="30" as="geometry" />
        </mxCell>
        <mxCell id="lUtUu6bvZHFrBesHKLuT-11" value="Scaling modes" style="text;html=1;strokeColor=none;fillColor=none;align=center;verticalAlign=middle;whiteSpace=wrap;rounded=0;fontSize=20;fontFamily=Helvetica;fontColor=#000000;fontStyle=1" parent="1" vertex="1">
          <mxGeometry x="-954.2599999999999" y="-1210" width="320" height="30" as="geometry" />
        </mxCell>
        <mxCell id="lUtUu6bvZHFrBesHKLuT-12" value="Gaining insights" style="text;html=1;strokeColor=none;fillColor=none;align=center;verticalAlign=middle;whiteSpace=wrap;rounded=0;fontSize=20;fontFamily=Helvetica;fontColor=#000000;fontStyle=1" parent="1" vertex="1">
          <mxGeometry x="536.7500000000001" y="-1230" width="320" height="30" as="geometry" />
        </mxCell>
        <mxCell id="lUtUu6bvZHFrBesHKLuT-13" value="Reliability" style="text;html=1;strokeColor=none;fillColor=none;align=center;verticalAlign=middle;whiteSpace=wrap;rounded=0;fontSize=20;fontFamily=Helvetica;fontColor=#000000;fontStyle=1" parent="1" vertex="1">
          <mxGeometry x="593.5000000000001" y="149" width="320" height="30" as="geometry" />
        </mxCell>
        <mxCell id="lUtUu6bvZHFrBesHKLuT-14" value="Backup &amp;amp; restore" style="text;html=1;strokeColor=none;fillColor=none;align=center;verticalAlign=middle;whiteSpace=wrap;rounded=0;fontSize=20;fontFamily=Helvetica;fontColor=#000000;fontStyle=1" parent="1" vertex="1">
          <mxGeometry x="-932.7599999999999" y="250" width="320" height="30" as="geometry" />
        </mxCell>
        <mxCell id="lUtUu6bvZHFrBesHKLuT-15" value="Integration with other services" style="text;html=1;strokeColor=none;fillColor=none;align=center;verticalAlign=middle;whiteSpace=wrap;rounded=0;fontSize=20;fontFamily=Helvetica;fontColor=#000000;fontStyle=1" parent="1" vertex="1">
          <mxGeometry x="-962.4999999999999" y="1600" width="320" height="30" as="geometry" />
        </mxCell>
      </root>
    </mxGraphModel>
  </diagram>
</mxfile>
